<ttFont>
<head>
    <!-- Most of this table will be recalculated by the compiler -->
    <tableVersion value="1.0"/>
    <fontRevision value="1.20099"/>
    <checkSumAdjustment value="0xa48b2ece"/>
    <magicNumber value="0x5f0f3cf5"/>
    <flags value="00000000 00000011"/>
    <unitsPerEm value="1000"/>
    <created value="Thu Jun 19 21:40:09 2014"/>
    <modified value="Thu Jun 19 19:40:14 2014"/>
    <xMin value="-561"/>
    <yMin value="-594"/>
    <xMax value="2032"/>
    <yMax value="950"/>
    <macStyle value="00000000 00000000"/>
    <lowestRecPPEM value="3"/>
    <fontDirectionHint value="2"/>
    <indexToLocFormat value="0"/>
    <glyphDataFormat value="0"/>
  </head>
          <CharString index="0">
            -34 15 -106 callsubr
            return
          </CharString>
          <CharString index="1">
            -34 -100 callgsubr
            return
          </CharString>
          <CharString index="2">
            271 callgsubr
            -32 269 callsubr
            -21 -4 -21 -3 -16 11 -12 114 callsubr
            return
          </CharString>
          <CharString index="3">
            vlineto
            -104 callgsubr
          </CharString>
          <CharString index="4">
            -107 callsubr
            -92 callsubr
            return
          </CharString>
          <CharString index="5">
            33 -82 callsubr
            return
          </CharString>
          <CharString index="6">
            646 callsubr
            4 -9 -20 529 callgsubr
            16 -29 hvcurveto
            -46 callgsubr
            515 callgsubr
            return
          </CharString>
          <CharString index="7">
            hlineto
            -34 15 -34 17 -21 vhcurveto
            358 -96 callgsubr
            return
          </CharString>
          <CharString index="8">
            rmoveto
            -105 callgsubr
            return
          </CharString>
          <CharString index="9">
            rmoveto
            -42 -26 -28 -42 -32 22 -31 36 -4 hvcurveto
            -7 -27 -18 -37 -30 -21 rrcurveto
            -7 19 -19 8 5 vhcurveto
            48 20 59 81 71 vvcurveto
            43 -28 28 -41 vhcurveto
            return
          </CharString>
          <CharString index="10">
            rmoveto
            81 276 77 -276 rlineto
            175 -218 rmoveto
            -190 619 -33 3 -20 1 -34 -4 rlinecurve
            -192 -621 -39 -52 callgsubr
            130 callsubr
            -79 6 46 158 rlineto
            192 hlineto
            44 -160 112 callsubr
            218 124 callgsubr
          </CharString>
          <CharString index="11">
            -117 hlineto
            -91 callsubr
            return
          </CharString>
          <CharString index="12">
            -19 -89 callgsubr
          </CharString>
          <CharString index="13">
            hhcurveto
            54 41 17 17 -70 callgsubr
            return
          </CharString>
          <CharString index="14">
            -94 callsubr
            44 vhcurveto
            return
          </CharString>
          <CharString index="15">
            108 -85 callsubr
            return
          </CharString>
          <CharString index="16">
            -81 callsubr
            -44 callsubr
            56 -19 return
          </CharString>
          <CharString index="17">
            29 45 -27 hvcurveto
            -75 callgsubr
            return
          </CharString>
          <CharString index="18">
            34 -14 -102 callsubr
            return
          </CharString>
          <CharString index="19">
            -106 callsubr
            128 -171 hlineto
            -83 callsubr
            243 return
          </CharString>
          <CharString index="20">
            94 callsubr
            -208 -60 rmoveto
            309 54 hlineto
            111 1 -52 97 -129 hhcurveto
            -137 -99 -97 -189 -159 83 -84 135 110 77 57 38 12 -7 17 -10 7 hvcurveto
            -23 -29 -45 -31 -66 hhcurveto
            -109 -32 69 102 hvcurveto
            endchar
          </CharString>
          <CharString index="21">
            -199 -116 -143 -226 2 hvcurveto
            -214 1 104 -129 176 hhcurveto
            204 113 143 224 hvcurveto
            240 -2 -124 105 -159 hhcurveto
            -15 -70 rmoveto
            130 1 61 -110 -181 vvcurveto
            -176 -64 -104 -130 -2 vhcurveto
            -127 1 -60 109 178 vvcurveto
            248 callsubr
            return
          </CharString>
          <CharString index="22">
            -508 hlineto
            -75 callsubr
            return
          </CharString>
          <CharString index="23">
            rmoveto
            -103 callgsubr
            return
          </CharString>
          <CharString index="24">
            -43 -32 -11 -15 -10 hvcurveto
            -65 callsubr
            return
          </CharString>
          <CharString index="25">
            -17 22 vhcurveto
            return
          </CharString>
          <CharString index="26">
            133 callgsubr
            -100 -84 -59 -107 -51 callgsubr
            hvcurveto
            return
          </CharString>
          <CharString index="27">
            rmoveto
            -77 callsubr
            180 hlineto
            return
          </CharString>
          <CharString index="28">
            rmoveto
            249 vlineto
            149 -90 54 -86 -71 -49 -36 -35 -38 vhcurveto
            -3 hlineto
            -9 67 -162 -15 callgsubr
            -371 -34 callsubr
            -71 628 callsubr
            35 41 33 19 57 hhcurveto
            62 35 -34 -84 hvcurveto
            -251 142 callsubr
            208 -37 callsubr
            return
          </CharString>
          <CharString index="29">
            rmoveto
            -151 -87 -106 -174 1 hvcurveto
            -157 76 -92 141 154 85 105 167 vhcurveto
            175 -1 -95 82 -123 hhcurveto
            -9 -67 rmoveto
            81 40 -86 -118 -115 -43 -76 -79 hvcurveto
            -80 -1 -41 78 119 vvcurveto
            116 43 82 79 1 vhcurveto
            return
          </CharString>
          <CharString index="30">
            -31 -27 -42 -26 -66 -72 callsubr
            return
          </CharString>
          <CharString index="31">
            -10 1 hvcurveto
            72 -6 rlineto
            -558 702 callsubr
            return
          </CharString>
          <CharString index="32">
            -22 -69 callgsubr
            return
          </CharString>
          <CharString index="33">
            hlineto
            -105 callgsubr
            return
          </CharString>
          <CharString index="34">
            102 -144 rmoveto
            276 vlineto
            146 -95 44 -103 -102 -69 -46 -60 -44 37 -18 42 4 vhcurveto
            53 2 32 42 55 hhcurveto
            66 33 -40 -87 hvcurveto
            -56 vlineto
            5 -28 -31 3 -33 hhcurveto
            return
          </CharString>
          <CharString index="35">
            hhcurveto
            -71 -51 -90 callsubr
            return
          </CharString>
          <CharString index="36">
            -18 22 vhcurveto
            return
          </CharString>
          <CharString index="37">
            rmoveto
            -43 4 -46 -10 1 hvcurveto
            46 -5 -92 -273 -89 288 -63 -1 -104 -297 -83 284 24 2 44 5 -5 43 1 10 rlinecurve
            -184 hlineto
            -31 -6 -33 -23 1 hvcurveto
            43 -6 144 -437 rlineto
            57 hlineto
            107 282 95 -282 rlineto
            58 hlineto
            168 440 12 1 24 2 10 19 -1 37 rlinecurve
            endchar
          </CharString>
          <CharString index="38">
            rmoveto
            -43 4 -46 -10 1 hvcurveto
            51 -6 -108 -280 -112 282 21 2 44 7 -6 41 1 10 rlinecurve
            -192 hlineto
            -44 5 -46 -10 1 hvcurveto
            52 -6 rlineto
            3 hlineto
            176 -402 rlineto
            -62 -21 -53 -126 -41 hhcurveto
            -27 0 30 18 4 hvcurveto
            2 -5 -10 0 -4 hhcurveto
            -33 -22 -25 -32 -38 30 -30 54 101 51 143 116 49 hvcurveto
            -1 hlineto
            167 409 7 1 45 8 -7 40 1 10 rlinecurve
            endchar
          </CharString>
          <CharString index="39">
            rmoveto
            -37 -45 callsubr
            return
          </CharString>
          <CharString index="40">
            228 -3 9 -117 rlineto
            10 -1 47 -4 40 vvcurveto
            147 -432 vlineto
            36 callsubr
            rlineto
            return
          </CharString>
          <CharString index="41">
            188 callsubr
            3 -19 -22 3 -12 hhcurveto
            -59 -33 520 callsubr
            -125 23 return
          </CharString>
          <CharString index="42">
            -5 -38 callsubr
            9 vhcurveto
            17 15 11 37 54 vvcurveto
            return
          </CharString>
          <CharString index="43">
            -68 callsubr
            -44 27 65 return
          </CharString>
          <CharString index="44">
            -43 callgsubr
            68 27 55 296 callsubr
            return
          </CharString>
          <CharString index="45">
            201 -223 hlineto
            -47 -36 -49 -33 -45 hhcurveto
            -55 -16 283 callsubr
            return
          </CharString>
          <CharString index="46">
            -3 6 -45 -1 -10 rlinecurve
            return
          </CharString>
          <CharString index="47">
            252 callgsubr
            -430 vlineto
            -326 493 rlineto
            -122 -81 callgsubr
            176 hlineto
            43 -47 callsubr
            -72 693 callgsubr
            346 -523 rlineto
            26 23 5 8 18 hvcurveto
            609 167 callsubr
          </CharString>
          <CharString index="48">
            -107 callgsubr
            95 hlineto
            -7 -15 -4 -18 -21 vvcurveto
            -65 53 -54 85 -31 vhcurveto
            7 5 12 19 3 10 rrcurveto
            return
          </CharString>
          <CharString index="49">
            -133 rcurveline
            6 -13 11 -14 21 -10 rrcurveto
            return
          </CharString>
          <CharString index="50">
            hlineto
            hintmask 1011011111100000
            -66 callsubr
            -143 50 -56 240 callsubr
            429 hlineto
            -7 -15 -4 -18 -21 vvcurveto
            -66 54 -54 83 -30 vhcurveto
            7 5 13 19 2 10 rrcurveto
            hintmask 0101101111100000
            -49 38 -12 30 28 vvcurveto
            46 31 25 35 49 23 -37 -62 -82 -70 -76 -59 -15 vhcurveto
            25 -20 -32 27 -25 hhcurveto
            -25 -20 -31 -19 -17 hvcurveto
            hintmask 1001011111100000
            -35 -30 -52 -48 -66 hhcurveto
            -41 -47 24 66 65 44 40 74 36 31 -7 -18 25 hvcurveto
            21 47 rlineto
            31 -24 -54 24 -65 hhcurveto
            -85 -90 -48 -108 -95 80 -91 116 70 64 37 43 41 hvcurveto
            hintmask 0101011111100000
            -6 14 14 -3 13 hhcurveto
            63 callsubr
            rrcurveto
            95 40 104 85 110 vvcurveto
            42 -14 34 -22 25 vhcurveto
            124 316 callsubr
          </CharString>
          <CharString index="51">
            -31 callsubr
            -16 27 return
          </CharString>
          <CharString index="52">
            rmoveto
            2 hlineto
            60 2 rlineto
            88 4 60 -35 -97 vvcurveto
            -88 -56 -51 -118 -10 -13 0 1 -13 vhcurveto
            -144 321 rmoveto
            -28 -7 -31 -25 691 callsubr
            -560 vlineto
            -35 -2 rlineto
            210 callgsubr
            222 hlineto
            42 -3 46 11 -1 hvcurveto
            -81 6 rlineto
            243 vlineto
            -1 18 18 0 16 hhcurveto
            hintmask 10111100
            -133 48 111 -187 94 hhcurveto
            45 32 33 44 4 hvcurveto
            -75 -92 92 159 -80 hvcurveto
            113 23 67 69 104 vvcurveto
            108 -71 66 -166 vhcurveto
            endchar
          </CharString>
          <CharString index="53">
            hlineto
            -34 14 -106 callsubr
            return
          </CharString>
          <CharString index="54">
            -8 80 -163 -21 rlineto
            -13 -1 -36 28 -3 vhcurveto
            48 -5 rlineto
            -371 120 callsubr
            219 159 callgsubr
            -83 6 rlineto
            299 vlineto
            38 30 36 28 34 hhcurveto
            24 14 -13 -61 hvcurveto
            21 -2 17 1 13 10 rrcurveto
            13 12 14 32 35 vvcurveto
            53 -36 20 -33 return
          </CharString>
          <CharString index="55">
            rmoveto
            -30 -52 -73 -11 -62 hhcurveto
            -22 -22 2 2 -20 hvcurveto
            hintmask 1001111101000000
            16 -18 -22 10 -26 hhcurveto
            hintmask 1100111101000000
            169 callgsubr
            46 12 99 hvcurveto
            53 18 -3 14 hhcurveto
            16 28 34 21 hvcurveto
            104 248 vlineto
            451 callgsubr
            -895 -107 callgsubr
            308 -70 -118 hlineto
            -81 -53 -44 -73 -98 89 -69 56 hvcurveto
            hintmask 1001111011000000
            134 callgsubr
            hintmask 1010111011000000
            16 -3 18 -7 19 vhcurveto
            -3 25 29 -3 29 hhcurveto
            42 43 6 15 34 hvcurveto
            -54 vlineto
            -200 -117 9 -25 28 -37 18 -12 rlinecurve
            145 109 rlineto
            -109 vlineto
            -21 56 -20 43 vhcurveto
            599 vlineto
            endchar
          </CharString>
          <CharString index="56">
            -44 callgsubr
            vlineto
            return
          </CharString>
          <CharString index="57">
            37 3 44 2 -6 47 1 10 rlinecurve
            -221 hlineto
            -44 5 -48 -10 1 hvcurveto
            61 -6 194 -339 rlineto
            -219 vlineto
            -36 96 callsubr
            -72 6 rlineto
            -1 219 hlineto
            191 339 23 3 44 4 -6 45 1 10 rlinecurve
            endchar
          </CharString>
          <CharString index="58">
            529 -84 callsubr
            return
          </CharString>
          <CharString index="59">
            hhcurveto
            -40 -48 24 66 65 46 40 69 39 30 -7 -18 26 hvcurveto
            21 47 rlineto
            32 -25 -53 23 -66 hhcurveto
            -84 -90 -48 -108 -95 80 -91 116 return
          </CharString>
          <CharString index="60">
            -4 47 10 -1 hvcurveto
            return
          </CharString>
          <CharString index="61">
            12 23 26 1 13 hhcurveto
            52 28 -35 -42 -44 -29 -33 -63 -96 -63 78 122 -58 hvcurveto
            -17 -4 -26 -13 -10 -13 rrcurveto
            -133 52 105 -129 142 hhcurveto
            102 50 69 81 hvcurveto
            4 0 4 4 vvcurveto
            15 hlineto
            30 368 callsubr
            57 -19 43 vhcurveto
            549 return
          </CharString>
          <CharString index="62">
            -34 -49 -30 -52 hhcurveto
            -48 return
          </CharString>
          <CharString index="63">
            -113 vlineto
            -22 return
          </CharString>
          <CharString index="64">
            -228 hlineto
            -44 -1 -31 -10 -11 -15 rrcurveto
            -4 113 callsubr
            14 17 4 8 8 vhcurveto
            16 15 14 47 40 vvcurveto
            327 callgsubr
            return
          </CharString>
          <CharString index="65">
            hlineto
            44 -47 callsubr
            return
          </CharString>
          <CharString index="66">
            355 callsubr
            -1 -17 10 -51 7 -14 28 callsubr
            return
          </CharString>
          <CharString index="67">
            -72 2 -34 1 -1 15 -1 7 6 16 13 18 rrcurveto
            -3 16 16 -2 18 hhcurveto
            114 70 77 109 5 hvcurveto
            2 46 -11 37 -19 27 30 -1 38 0 13 7 16 12 -5 46 -11 14 rrcurveto
            endchar
          </CharString>
          <CharString index="68">
            rmoveto
            -15 callsubr
            return
          </CharString>
          <CharString index="69">
            269 callgsubr
            76 -91 48 15 16 6 8 return
          </CharString>
          <CharString index="70">
            hlineto
            43 -4 46 10 -1 hvcurveto
            return
          </CharString>
          <CharString index="71">
            4 -4 callgsubr
            return
          </CharString>
          <CharString index="72">
            hhcurveto
            -108 -74 -55 -75 -56 34 -45 23 -19 hvcurveto
            13 3 18 9 9 8 rrcurveto
            -7 14 -11 23 25 vvcurveto
            62 61 20 73 144 95 -108 -82 52 vhcurveto
            139 callgsubr
            return
          </CharString>
          <CharString index="73">
            vlineto
            -35 -2 -45 -61 callsubr
            210 -37 callsubr
            return
          </CharString>
          <CharString index="74">
            -107 callgsubr
            73 -174 hlineto
            -141 85 -83 109 110 63 81 120 vhcurveto
            197 return
          </CharString>
          <CharString index="75">
            -66 -9 -40 -50 -65 vvcurveto
            -63 callsubr
            return
          </CharString>
          <CharString index="76">
            71 52 39 72 42 34 -13 return
          </CharString>
          <CharString index="77">
            rmoveto
            -302 -14 379 580 -1 19 -10 14 -11 8 rlinecurve
            -449 -208 hlineto
            28 -6 31 7 6 47 10 85 rcurveline
            257 9 -381 -576 3 -16 6 -13 7 -14 rlinecurve
            503 212 hlineto
            -31 6 -27 -7 -6 -45 rrcurveto
            endchar
          </CharString>
          <CharString index="78">
            hlineto
            -34 15 -34 17 -19 callsubr
            return
          </CharString>
          <CharString index="79">
            -42 427 callgsubr
            hstem
            173 79 52 87 vstem
            633 377 rmoveto
            32 -28 -51 36 -76 hhcurveto
            -84 -90 -47 -110 -93 76 -91 119 74 45 34 35 40 hvcurveto
            -12 116 rlineto
            -60 -22 -73 -53 -72 hhcurveto
            -41 657 callgsubr
            69 38 45 -5 -25 29 hvcurveto
            41 -220 rmoveto
            -26 -62 -89 -21 -90 hhcurveto
            -122 -117 41 81 -58 hvcurveto
            85 10 46 73 136 vvcurveto
            38 -4 42 -9 37 vhcurveto
            391 -84 callgsubr
            -634 704 callsubr
            19 -41 18 -60 -49 vvcurveto
            -14 -2 -19 -4 -15 vhcurveto
            4 -20 -21 3 -11 hhcurveto
            -51 -39 -21 -57 -85 106 -126 152 -36 hvcurveto
            -208 -54 3 -27 14 -40 15 -15 rlinecurve
            566 164 rlineto
            return
          </CharString>
          <CharString index="80">
            -46 -18 -15 -8 callsubr
            return
          </CharString>
          <CharString index="81">
            -80 267 callgsubr
            173 58.5 hintmask 11001000
            523 618 rmoveto
            -101 hlineto
            -34 19 -34 18 707 callgsubr
            hintmask 10111100
            -319 10 rmoveto
            -75 -64 -37 -75 -75 59 -43 73 -24 hvcurveto
            -29 callgsubr
            57 62 0 -3 53 hvcurveto
            -306 -196 179 callgsubr
            rlinecurve
            310 224 -3 122 rlineto
            5 -50 -142 2 -38 hhcurveto
            119 vlineto
            282 callgsubr
            vhcurveto
            return
          </CharString>
          <CharString index="82">
            579 callgsubr
            12 408 callgsubr
            -13 -26 2 6 -16 hvcurveto
            27 -14 -32 48 -27 hhcurveto
            -26 -42 626 callsubr
            57 -16 hvcurveto
            35 -55 32 -81 20 82 callgsubr
            return
          </CharString>
          <CharString index="83">
            rmoveto
            -30 -27 -42 -26 -66 hhcurveto
            -71 371 callgsubr
            37 189 callsubr
            return
          </CharString>
          <CharString index="84">
            109 rmoveto
            377 callsubr
            43 24 35 37 24 20 -16 -29 vhcurveto
            -1 -45 -37 -33 -52 -15 rrcurveto
            hintmask 11111010
            70 420 rmoveto
            163 hlineto
            331 callgsubr
            -131 94 -91 138 -8 hvcurveto
            -174 -105 221 callgsubr
            131 -107 12 7 31 30 7 15 rlinecurve
            -162 121 rlineto
            hintmask 11111101
            106 15 70 65 83 vvcurveto
            75 -57 44 -69 -75 -46 323 callsubr
            vhcurveto
            78 callsubr
            hintmask 11111010
            25 26 -4 -2 23 hvcurveto
            14 6 18 23 4 17 rrcurveto
            endchar
          </CharString>
          <CharString index="85">
            -30 hvcurveto
            15 -26 23 -30 32 -18 rrcurveto
            50 36 72 80 105 vvcurveto
            104 -74 72 -94 return
          </CharString>
          <CharString index="86">
            vlineto
            -54 callgsubr
          </CharString>
          <CharString index="87">
            rmoveto
            6 -16 -32 5 -31 hhcurveto
            -17 -25 -2 -2 -15 hvcurveto
            -1 -17 463 callsubr
            -66 32 -36 14 8 15 14 628 callgsubr
            91 -79 29 rrcurveto
            endchar
          </CharString>
          <CharString index="88">
            -21 vhcurveto
            157 -101 callgsubr
            return
          </CharString>
          <CharString index="89">
            63 -25 43 -17 -47 vvcurveto
            -47 -45 -20 -49 1 vhcurveto
            -70 -39 39 59 -9 hvcurveto
            -36 -35 -22 -43 -1 hvcurveto
            -69 89 -30 79 -1 vhcurveto
            128 -1 74 77 1 90 rrcurveto
            return
          </CharString>
          <CharString index="90">
            -14 10 33 57 46 15 100 hvcurveto
            55 15 -3 26 hhcurveto
            14 9 19 23 4 20 rrcurveto
            return
          </CharString>
          <CharString index="91">
            18 callsubr
            -2 -5 18 hvcurveto
            57 -17 return
          </CharString>
          <CharString index="92">
            -7 callgsubr
            53 return
          </CharString>
          <CharString index="93">
            13 callgsubr
            9 hvcurveto
            return
          </CharString>
          <CharString index="94">
            198 callgsubr
            -44 43 -43 40 rrcurveto
            23 27 12 34 37 vvcurveto
            40 -15 35 -38 -37 -61 -34 -48 -14 5 -34 12 -16 vhcurveto
            -12 -21 -31 -5 -28 692 callgsubr
            return
          </CharString>
          <CharString index="95">
            -34 -27 hvcurveto
            71 73 callgsubr
            237 hlineto
            43 -4 45 11 -1 hvcurveto
            -100 6 rlineto
            376 return
          </CharString>
          <CharString index="96">
            -49 callsubr
            -332 hlineto
            -34 19 309 callgsubr
            88 -196 hlineto
            3 -56 -91 1 -33 hhcurveto
            119 vlineto
            hintmask 10111100
            282 callgsubr
            -75 -64 -37 -75 -75 59 -43 73 -24 vhcurveto
            -29 callgsubr
            62 57 -1 -3 53 hvcurveto
            -306 -195 179 callgsubr
            rlinecurve
            257 186 rlineto
            -142 vlineto
            -22 56 -26 43 vhcurveto
            hintmask 11001100
            -82 callgsubr
          </CharString>
          <CharString index="97">
            rmoveto
            -30 -5 -34 -35 -10 -21 203 -109 rcurveline
            21 10 11 14 6 13 rrcurveto
            return
          </CharString>
          <CharString index="98">
            -36 callgsubr
            16 54 48 459 callgsubr
            return
          </CharString>
          <CharString index="99">
            45 -55 18 304 callsubr
            return
          </CharString>
          <CharString index="100">
            hlineto
            -34 15 -34 17 -21 vhcurveto
            147 hlineto
            -66 callsubr
            -144 157 callsubr
            return
          </CharString>
          <CharString index="101">
            630 callsubr
            232.5 234 callgsubr
            -44.5 201 callgsubr
            return
          </CharString>
          <CharString index="102">
            -50 38 -11 29 29 vvcurveto
            45 30 26 34 52 22 -39 -58 return
          </CharString>
          <CharString index="103">
            rmoveto
            55 30 59 130 82 hhcurveto
            47 20 -39 -45 -76 -55 -82 -77 -39 -34 20 36 -34 hvcurveto
            hintmask 01111110
            -192 -45 rmoveto
            -40 -42 27 63 50 35 82 99 50 36 -21 -19 23 hvcurveto
            -10 -16 -9 -18 -9 -17 rrcurveto
            -62 -34 -30 -69 -69 hhcurveto
            393 380 rmoveto
            191 -84 callgsubr
            -781 -107 callgsubr
            491 -77 hlineto
            -46 -12 -34 -31 -28 -38 rrcurveto
            38 -30 -52 48 -84 hhcurveto
            -107 -70 -78 -111 -135 104 -71 79 58 46 38 50 35 hvcurveto
            hintmask 10111110
            -45 32 58 -46 74 hhcurveto
            101 82 85 120 93 -49 67 -70 24 hvcurveto
            endchar
          </CharString>
          <CharString index="104">
            -95 -72 -103 -47 24 -36 26 -28 hvcurveto
            endchar
          </CharString>
          <CharString index="105">
            579 callgsubr
            12 408 callgsubr
            -13 -26 2 6 -16 hvcurveto
            27 -14 -25 48 -38 hhcurveto
            -26 -35 449 callsubr
            435 callsubr
            57 -45 96 -80 hvcurveto
            return
          </CharString>
          <CharString index="106">
            rmoveto
            162 -74 callsubr
            -598 -107 callgsubr
            337 81 callsubr
            421 callgsubr
            hvcurveto
            322 callgsubr
            hintmask 11110100
            137 callgsubr
            hintmask 11111000
            317 callgsubr
          </CharString>
          <CharString index="107">
            rmoveto
            21 10 11 14 6 13 -167 133 rcurveline
            -30 -5 -34 -35 -10 -21 rrcurveto
            endchar
          </CharString>
          <CharString index="108">
            77 8 callsubr
            return
          </CharString>
          <CharString index="109">
            284 vlineto
            46 697 callgsubr
            return
          </CharString>
          <CharString index="110">
            562 callsubr
            36 29 -21 -42 -55 -50 -57 -50 -33 hvcurveto
            13 157 callgsubr
            182 callsubr
            vhcurveto
            endchar
          </CharString>
          <CharString index="111">
            16 -18 -22 10 -26 hhcurveto
            hintmask 1100111100000000
            169 callgsubr
            46 12 99 hvcurveto
            53 18 -3 14 hhcurveto
            16 28 34 21 hvcurveto
            104 228 vlineto
            34 -14 605 callsubr
            308 -70 -118 hlineto
            -81 -53 -44 -73 -98 89 -69 56 hvcurveto
            hintmask 1001111010000000
            -25 callsubr
            return
          </CharString>
          <CharString index="112">
            -212 529 89 hstemhm
            34 94 -37 94 hintmask 10100000
            456 312 rmoveto
            -68 -28 -81 -64 -78 hhcurveto
            -55 -29 31 39 64 76 22 61 13 hvcurveto
            -7 27 -19 33 -16 16 rrcurveto
            hintmask 11000000
            -24 -12 -38 -16 -22 -4 rrcurveto
            -29 2 -39 23 52 vvcurveto
            21 7 23 12 15 vhcurveto
            273 -74 callsubr
            -428 -54 callsubr
            56 hlineto
            -8 -15 -5 -18 -20 vvcurveto
            -55 33 -49 62 -27 vhcurveto
            hintmask 10100000
            -27 -25 -11 -30 -36 vvcurveto
            -73 51 -49 68 -17 vhcurveto
            -119 -56 7 -26 20 -36 18 -18 rlinecurve
            347 200 rlineto
            return
          </CharString>
          <CharString index="113">
            -117 hlineto
            133 callgsubr
            -100 -84 -59 -107 713 callsubr
            -42 callgsubr
            44 vhcurveto
            return
          </CharString>
          <CharString index="114">
            -44 -40 -63 -34 -49 hhcurveto
            -42 -49 24 74 81 58 39 80 44 34 -12 return
          </CharString>
          <CharString index="115">
            -62 9 callsubr
            return
          </CharString>
          <CharString index="116">
            81 55 callgsubr
            return
          </CharString>
          <CharString index="117">
            -122 95 273 callsubr
            11 20 -23 38 -43 43 716 callgsubr
            -15 35 -38 -37 -62 694 callgsubr
            11 -16 vhcurveto
            -12 -21 -30 -5 -28 hhcurveto
            -86 -58 41 82 return
          </CharString>
          <CharString index="118">
            -27 callsubr
            18 -48 56 -16 hvcurveto
            return
          </CharString>
          <CharString index="119">
            -155 -50 -73 -75 -86 62 -51 92 60 50 22 33 39 hvcurveto
            return
          </CharString>
          <CharString index="120">
            rmoveto
            -62 callsubr
            301 102 rmoveto
            364 -84 callgsubr
            -858 hlineto
            -34 15 -34 17 -21 vhcurveto
            89 -103 hlineto
            -130 43 -110 102 -24 vhcurveto
            -147 -102 8 -24 30 -37 18 -11 rlinecurve
            251 197 rlineto
            -164 181 callsubr
          </CharString>
          <CharString index="121">
            hhcurveto
            -10 -4 -22 -25 -5 -18 rrcurveto
            29 -27 37 -33 -45 vvcurveto
            -37 -25 -18 -34 -86 -70 112 74 -28 vhcurveto
            return
          </CharString>
          <CharString index="122">
            hmoveto
            -105 callgsubr
            return
          </CharString>
          <CharString index="123">
            34 -14 33 return
          </CharString>
          <CharString index="124">
            -116 32 -137 51 101 vvcurveto
            62 56 38 71 48 35 -16 -23 -25 -30 -29 -37 -14 vhcurveto
            7 -24 29 -47 13 -9 rrcurveto
            57 18 31 54 50 vvcurveto
            61 -48 84 -126 return
          </CharString>
          <CharString index="125">
            3 18 25 2 22 hhcurveto
            24 18 return
          </CharString>
          <CharString index="126">
            248 -24 callsubr
            return
          </CharString>
          <CharString index="127">
            rmoveto
            -233 -6 rlineto
            558 1 vlineto
            50 3 44 2 -6 47 1 10 rlinecurve
            -228 hlineto
            -43 4 -48 -10 1 hvcurveto
            71 -6 rlineto
            return
          </CharString>
          <CharString index="128">
            rmoveto
            38 27 28 37 37 -27 28 -38 -36 -28 -28 -37 -37 28 -28 36 hvcurveto
            return
          </CharString>
          <CharString index="129">
            -71 callgsubr
            -70 -36 -31 return
          </CharString>
          <CharString index="130">
            -108 -131 125 return
          </CharString>
          <CharString index="131">
            rmoveto
            -12 -26 -27 -8 -25 hhcurveto
            -45 -47 25 61 32 9 26 18 20 hvcurveto
            214 -92 rmoveto
            -7 -8 -8 -7 -9 -7 -143 146 rcurveline
            7 19 21 3 24 hhcurveto
            43 33 -11 -17 27 hvcurveto
            240 175 -99 callsubr
            -617 -107 callgsubr
            377 -107 hlineto
            25 -36 -47 20 -54 581 callgsubr
            -76 49 -75 88 -26 hvcurveto
            -126 -72 8 -25 29 -36 18 -13 rlinecurve
            264 176 rlineto
            -122 -104 callsubr
          </CharString>
          <CharString index="132">
            436 -142 vlineto
            -42 5 -50 -10 hvcurveto
            77 -2 rlineto
            return
          </CharString>
          <CharString index="133">
            hmoveto
            -89 callsubr
            return
          </CharString>
          <CharString index="134">
            342 rmoveto
            3 -36 -45 2 -43 hhcurveto
            -87 182 211 319 callsubr
            -674 11 callgsubr
            29 1 28 0 26 -1 rrcurveto
            43 42 -2 -4 40 hvcurveto
            -10 vlineto
            -314 -199 8 -24 30 -38 18 -11 rlinecurve
            258 187 rlineto
            -149 -21 callsubr
          </CharString>
          <CharString index="135">
            rrcurveto
            -16 callsubr
            return
          </CharString>
          <CharString index="136">
            -72 -15 68 576 68 hstemhm
            25 88 -59 91 233 82 -60 91 hintmask 11011000
            279 697 rmoveto
            115 callgsubr
            hintmask 11100100
            14 callgsubr
            513 callsubr
            hvcurveto
            hintmask 11011000
            251 callgsubr
            80 35 -45 -78 vhcurveto
            46 -5 36 26 53 vvcurveto
            89 -104 29 -77 -1 vhcurveto
            return
          </CharString>
          <CharString index="137">
            107 callgsubr
            722 501 callsubr
            -6 0 -6 1 -5 vhcurveto
            -62 -29 -60 -38 -63 hhcurveto
            -40 -48 24 66 65 46 40 69 39 30 -7 -18 27 hvcurveto
            20 47 rlineto
            32 -25 -53 23 -65 hhcurveto
            -85 -89 -48 -108 -95 80 -91 116 72 49 34 42 39 hvcurveto
            hintmask 1010111110000000
            -54 33 60 -38 79 hhcurveto
            56 349 callgsubr
            hvcurveto
            -108 -104 callsubr
          </CharString>
          <CharString index="138">
            rmoveto
            -62 callsubr
            301 102 rmoveto
            177 -84 callgsubr
            -671 229 callsubr
            251 vlineto
            53 432 callsubr
            16 16 -5 -10 10 hvcurveto
            48 46 rlineto
            29 -29 -42 17 -44 hhcurveto
            -55 547 callsubr
          </CharString>
          <CharString index="139">
            -36 27 -21 28 40 vvcurveto
            50 30 18 26 31 34 -24 -79 -151 -127 -104 -130 -67 -37 28 46 59 69 27 54 302 callsubr
            -19 19 return
          </CharString>
          <CharString index="140">
            -74 callsubr
            hintmask 11111000
            70 -247 rmoveto
            -18 -14 -45 -11 -47 -3 rrcurveto
            -1 -11 -11 -1 -10 hhcurveto
            88 -10 -72 53 -95 hhcurveto
            -53 -51 -18 -18 -22 hvcurveto
            7 -31 26 -35 11 -15 rrcurveto
            26 30 43 20 36 hhcurveto
            44 22 -31 -38 hvcurveto
            hintmask 10111000
            -54 -33 -38 -57 -103 -67 100 92 -55 vhcurveto
            -12 -4 -28 -16 -6 -9 rrcurveto
            -130 50 115 -107 127 hhcurveto
            79 56 41 66 15 hvcurveto
            hintmask 11111000
            -5 16 24 -3 22 hhcurveto
            28 35 8 10 16 hvcurveto
            return
          </CharString>
          <CharString index="141">
            rrcurveto
            -195 -104 callsubr
          </CharString>
          <CharString index="142">
            106 callsubr
            -20 33 -37 return
          </CharString>
          <CharString index="143">
            -44 52 callgsubr
            return
          </CharString>
          <CharString index="144">
            -21 -40 vvcurveto
            -36 45 -69 40 -31 297 callgsubr
            return
          </CharString>
          <CharString index="145">
            -121 59 299 callsubr
            335 83 vstem
            479 618 rmoveto
            -521 -107 callgsubr
            521 -84 callgsubr
            -417 -180 rmoveto
            -16 -2 -29 -9 -16 -11 rrcurveto
            -179 177 callgsubr
            75 208 callsubr
            211 89 -276 hlineto
            -10 -4 -22 -30 -4 259 callsubr
            return
          </CharString>
          <CharString index="146">
            80 337 callsubr
            415 529 rmoveto
            152 -61 callgsubr
            -578 hlineto
            -34 15 161 callsubr
            580 callsubr
            106 83 51 56 47 hvcurveto
            41 callgsubr
            return
          </CharString>
          <CharString index="147">
            1 vlineto
            54 2 rlineto
            188 7 86 -80 -211 vvcurveto
            -197 -83 -88 -178 8 vhcurveto
            -201 622 rmoveto
            -38 -6 -24 -34 1 hvcurveto
            71 -6 rlineto
            return
          </CharString>
          <CharString index="148">
            -11 24 -24 701 callsubr
            -41 -32 -62 -55 -95 694 callsubr
            92 74 46 118 23 23 -1 -3 19 621 callsubr
            return
          </CharString>
          <CharString index="149">
            -54 48 -96 144 callgsubr
            -20 41 57 -9 53 hhcurveto
            return
          </CharString>
          <CharString index="150">
            111 callsubr
            439 callsubr
            12 -16 -22 -25 return
          </CharString>
          <CharString index="151">
            rmoveto
            -31 -26 -43 -27 -67 hhcurveto
            -71 -50 29 45 -27 hvcurveto
            105 24 37 61 65 vvcurveto
            39 -16 34 -23 26 vhcurveto
            181 319 callsubr
            -645 172 callgsubr
            -97 -18 vhcurveto
            13 -90 55 -107 120 -26 -134 -77 rcurveline
            8 -25 29 -37 18 -12 262 176 rcurveline
            -124 -21 callsubr
          </CharString>
          <CharString index="152">
            579 callgsubr
            13 408 callgsubr
            -14 -25 2 6 -17 hvcurveto
            27 -13 -32 48 -27 hhcurveto
            -27 return
          </CharString>
          <CharString index="153">
            hlineto
            -94 callgsubr
          </CharString>
          <CharString index="154">
            341 callsubr
            hstem
            88 104 310 -26 callgsubr
            return
          </CharString>
          <CharString index="155">
            rmoveto
            -1 245 rlineto
            153 -92 54 -86 -72 -44 -33 -33 -35 vhcurveto
            260 vlineto
            166 callgsubr
            -568 142 callsubr
            211 -37 callsubr
            -73 628 callsubr
            33 37 33 20 53 hhcurveto
            66 39 -32 -88 hvcurveto
            -248 120 callsubr
            209 159 callgsubr
            endchar
          </CharString>
          <CharString index="156">
            300 75 callgsubr
            return
          </CharString>
          <CharString index="157">
            -68 -47 -22 callsubr
            return
          </CharString>
          <CharString index="158">
            rmoveto
            538 callgsubr
            723 callgsubr
            17 53 49 459 callgsubr
            return
          </CharString>
          <CharString index="159">
            227 callgsubr
            18 25 17 12 24 -14 50 return
          </CharString>
          <CharString index="160">
            224 callsubr
            -2 631 callgsubr
            return
          </CharString>
          <CharString index="161">
            35 -10 -14 19 300 callsubr
            return
          </CharString>
          <CharString index="162">
            -5 -15 79 559 74 698 callsubr
            319 85 -8 15 hintmask 11110000
            357 697 rmoveto
            172 callsubr
            hintmask 11101000
            131 96 66 45 10 -6 13 -9 6 hvcurveto
            105 callsubr
            hintmask 11110000
            147 callsubr
            hvcurveto
            return
          </CharString>
          <CharString index="163">
            -12 121 callgsubr
            30 -24 -59 return
          </CharString>
          <CharString index="164">
            76 -53 62 -87 -84 -50 -59 -60 -57 45 -56 40 -26 vhcurveto
            -44 -25 -59 -25 -47 -14 8 -27 24 -45 9 -8 60 16 67 34 53 38 return
          </CharString>
          <CharString index="165">
            139 166 89 hstem
            174 85 vstem
            383 -49 callsubr
            -393 -107 callgsubr
            155 hlineto
            21 -46 8 -53 -35 vvcurveto
            -15 -2 -15 -6 265 callgsubr
            179 -174 50 150 callgsubr
            35 -4 61 -9 44 vhcurveto
            return
          </CharString>
          <CharString index="166">
            541 callsubr
            35 -4 rrcurveto
            -195 -93 callgsubr
          </CharString>
          <CharString index="167">
            47 -65 99 79 vvcurveto
            62 41 23 116 142 callgsubr
          </CharString>
          <CharString index="168">
            hhcurveto
            -30 1 -31 0 -26 -1 rrcurveto
            return
          </CharString>
          <CharString index="169">
            -74 callsubr
            -630 -107 callgsubr
            321 -84 hlineto
            -6 -7 0 -6 375 callsubr
            return
          </CharString>
          <CharString index="170">
            8 7 0 1 6 hvcurveto
            51 -62 62 -90 40 -77 25 11 43 695 callgsubr
            -87 86 -57 48 return
          </CharString>
          <CharString index="171">
            645 callgsubr
            20 -10 rrcurveto
            return
          </CharString>
          <CharString index="172">
            125 -33 vhcurveto
            -16 281 callgsubr
            return
          </CharString>
          <CharString index="173">
            -36 -44 76 callsubr
            return
          </CharString>
          <CharString index="174">
            rmoveto
            -43 -36 callsubr
            return
          </CharString>
          <CharString index="175">
            89 hstemhm
            29 92 227 100 return
          </CharString>
          <CharString index="176">
            -238 510 callsubr
            219 529 404 callgsubr
            -405 -107 callgsubr
            129 -147 hlineto
            -83 callsubr
            237 -17 rmoveto
            -379 -233 8 -24 29 -39 15 -10 rlinecurve
            352 242 rlineto
            return
          </CharString>
          <CharString index="177">
            145 callsubr
            631 callsubr
            39 -1 37 -2 36 -4 34 callsubr
          </CharString>
          <CharString index="178">
            196 callgsubr
            701 callgsubr
            hvcurveto
            return
          </CharString>
          <CharString index="179">
            18 -55 134 13 rlineto
            13 1 41 -31 1 vhcurveto
            return
          </CharString>
          <CharString index="180">
            -3 6 -46 -1 -10 rlinecurve
            return
          </CharString>
          <CharString index="181">
            241 93 callgsubr
            return
          </CharString>
          <CharString index="182">
            515 callgsubr
            34 4 27 498 callgsubr
            42 57 -9 52 hhcurveto
            return
          </CharString>
          <CharString index="183">
            hhcurveto
            -65 160 callgsubr
            return
          </CharString>
          <CharString index="184">
            -45 -1 -3 536 callgsubr
            516 callsubr
            40 -30 -14 callsubr
            return
          </CharString>
          <CharString index="185">
            -1 347 callgsubr
            -89 -67 46 84 64 39 75 146 hvcurveto
            return
          </CharString>
          <CharString index="186">
            2 callsubr
            hhcurveto
            return
          </CharString>
          <CharString index="187">
            -44 -36 callsubr
            65 -5 -221 -281 rlineto
            282 285 callgsubr
            220 -42 callsubr
            -80 6 rlineto
            182 vlineto
            37 45 203 -290 rlineto
            109 hlineto
            38 7 44 12 -6 hvcurveto
            return
          </CharString>
          <CharString index="188">
            -74 hlineto
            193 callgsubr
            -84 -87 -119 return
          </CharString>
          <CharString index="189">
            rlineto
            -569 -34 callsubr
            return
          </CharString>
          <CharString index="190">
            54 37 57 60 60 hhcurveto
            36 30 -21 -51 -76 -69 -68 -46 182 callgsubr
          </CharString>
          <CharString index="191">
            53 callsubr
            4 -9 -21 5 -23 hhcurveto
            return
          </CharString>
          <CharString index="192">
            -107 callgsubr
            358 -117 hlineto
            133 callgsubr
            return
          </CharString>
          <CharString index="193">
            255 callsubr
            -142 hlineto
            -137 56 -116 136 return
          </CharString>
          <CharString index="194">
            -229 410 callgsubr
            76 105 vstem
            416 357 rmoveto
            -74 -31 -69 -63 -57 76 callsubr
            122 222 200 callgsubr
            -413 677 callsubr
            -122 45 -102 102 -22 vhcurveto
            -145 -102 179 callgsubr
            rlinecurve
            188 144 98 82 6 5 rrcurveto
            return
          </CharString>
          <CharString index="195">
            86 -54 137 -81 -32 vvcurveto
            -20 -31 -23 -36 -19 vhcurveto
            15 -25 27 -33 24 -16 rrcurveto
            39 40 35 38 69 vvcurveto
            100 -106 42 -107 67 vhcurveto
            -87 52 -16 23 69 vvcurveto
            endchar
          </CharString>
          <CharString index="196">
            109 101 40 59 39 hvcurveto
            167 4 vlineto
            27 422 callgsubr
            endchar
          </CharString>
          <CharString index="197">
            -102 callsubr
            -1233 -7 callsubr
            return
          </CharString>
          <CharString index="198">
            -50 -58 -22 -18 -28 hvcurveto
            9 -31 28 -51 7 -8 rrcurveto
            13 18 50 33 45 hhcurveto
            56 693 callsubr
            267 callsubr
            return
          </CharString>
          <CharString index="199">
            37 callsubr
            629 callsubr
            return
          </CharString>
          <CharString index="200">
            hlineto
            -10 -4 -22 -30 -4 563 callgsubr
            return
          </CharString>
          <CharString index="201">
            88 14 40 45 58 hhcurveto
            56 32 -42 -91 2 hvcurveto
            return
          </CharString>
          <CharString index="202">
            3 -9 539 callgsubr
            -70 -45 -43 -51 -27 hvcurveto
            return
          </CharString>
          <CharString index="203">
            -52 callgsubr
            214 -42 callsubr
            return
          </CharString>
          <CharString index="204">
            57 -1 39 -37 -1 -47 rrcurveto
            38 -5 34 22 44 vvcurveto
            68 -79 21 -62 return
          </CharString>
          <CharString index="205">
            -32 -32 -6 -11 -28 hvcurveto
            -26 24 -8 23 17 vvcurveto
            26 26 15 87 vhcurveto
            return
          </CharString>
          <CharString index="206">
            297 callgsubr
            3 return
          </CharString>
          <CharString index="207">
            vlineto
            35 -63 callgsubr
            return
          </CharString>
          <CharString index="208">
            19 34 36 40 vvcurveto
            52 -40 36 return
          </CharString>
          <CharString index="209">
            22 vhcurveto
            -593 -107 callgsubr
            331 -81 hlineto
            2 -16 -15 256 callsubr
            582 callgsubr
            hvcurveto
            hintmask 11111101
            131 90 72 94 293 callgsubr
            hvcurveto
            78 callsubr
            hintmask 11111010
            return
          </CharString>
          <CharString index="210">
            260 callsubr
            28 3 6 24 hvcurveto
            -226 -93 callgsubr
          </CharString>
          <CharString index="211">
            282 callgsubr
            -76 -64 -37 -75 606 callsubr
            -30 196 callsubr
            -171 vlineto
            -71 -3 -23 -17 -31 vvcurveto
            -56 80 -71 24 -9 vhcurveto
            -2 6 624 callsubr
            14 2 6 9 hvcurveto
            18 12 13 56 3 35 rrcurveto
            return
          </CharString>
          <CharString index="212">
            -28 -35 -62 -33 -85 hhcurveto
            -156 -58 105 174 161 68 119 132 hvcurveto
            return
          </CharString>
          <CharString index="213">
            144 callsubr
            -45 41 rrcurveto
            25 534 callsubr
            41 return
          </CharString>
          <CharString index="214">
            -98 callsubr
            endchar
          </CharString>
          <CharString index="215">
            333 callsubr
            72 -305 hlineto
            -54 callgsubr
          </CharString>
          <CharString index="216">
            46 87 101 callgsubr
            -58 266 callgsubr
            return
          </CharString>
          <CharString index="217">
            17 6 33 434 callsubr
            return
          </CharString>
          <CharString index="218">
            151 callgsubr
            -35 632 callgsubr
            return
          </CharString>
          <CharString index="219">
            -35 -52 callgsubr
            return
          </CharString>
          <CharString index="220">
            162 callgsubr
            80 -91 44 return
          </CharString>
          <CharString index="221">
            44 -25 29 -5 rrcurveto
            return
          </CharString>
          <CharString index="222">
            hlineto
            -10 -4 -21 -30 -5 -17 rrcurveto
            return
          </CharString>
          <CharString index="223">
            hlineto
            -11 -5 -18 -21 -7 -12 rrcurveto
            63 -49 81 -82 -78 vvcurveto
            -45 -21 -49 -67 -4 vhcurveto
            38 -21 -28 33 -28 hhcurveto
            -26 -42 -26 -34 -27 42 -38 69 -11 hvcurveto
            34 -54 32 -67 19 -50 21 7 46 33 7 15 -14 25 -43 52 -37 36 rrcurveto
            100 8 52 55 82 vvcurveto
            58 -30 63 -72 57 vhcurveto
            return
          </CharString>
          <CharString index="224">
            vvcurveto
            -45 36 -34 57 35 219 callgsubr
            return
          </CharString>
          <CharString index="225">
            179 callsubr
            -22 return
          </CharString>
          <CharString index="226">
            -88 -53 -43 -43 -79 vvcurveto
            -102 74 -76 116 32 39 10 16 32 vhcurveto
            30 -47 24 -52 19 -43 536 callsubr
            14 -16 29 -51 55 -40 34 rrcurveto
            23 22 14 28 28 vvcurveto
            34 -19 35 -31 -31 -59 629 callgsubr
            9 -13 vhcurveto
            -9 -20 -24 -3 -22 583 callsubr
            return
          </CharString>
          <CharString index="227">
            vlineto
            -34 -66 callgsubr
            return
          </CharString>
          <CharString index="228">
            vlineto
            348 callsubr
            return
          </CharString>
          <CharString index="229">
            205 callgsubr
            11 29 2 21 rrcurveto
            -116 32 -137 51 101 vvcurveto
            62 56 38 71 return
          </CharString>
          <CharString index="230">
            335 callsubr
            -78 vlineto
            -21 56 -23 44 -78 callgsubr
          </CharString>
          <CharString index="231">
            23 callgsubr
            -72 -50 -90 callsubr
            179 hlineto
            240 26 callsubr
            -651 79 callgsubr
            -70 -37 -31 -96 -21 vhcurveto
            return
          </CharString>
          <CharString index="232">
            -465 vlineto
            -115 -27 -17 -36 -29 -12 23 28 -1 vhcurveto
            -35 1 -28 -18 -37 vvcurveto
            -56 58 -10 23 vhcurveto
            114 -1 75 92 189 vvcurveto
            return
          </CharString>
          <CharString index="233">
            -46 -33 -31 -49 -64 vvcurveto
            -153 167 -84 206 -44 vhcurveto
            9 14 11 28 4 18 rrcurveto
            -203 47 -97 61 97 vvcurveto
            103 102 47 98 return
          </CharString>
          <CharString index="234">
            482 callsubr
            -134 124 -27 7 -15 0 -28 -7 rlinecurve
            -137 651 callsubr
            16 -9 rlinecurve
            return
          </CharString>
          <CharString index="235">
            hhcurveto
            -57 -28 33 35 53 74 33 72 14 hvcurveto
            325 callsubr
            return
          </CharString>
          <CharString index="236">
            93 callsubr
            -30 -18 -37 return
          </CharString>
          <CharString index="237">
            191 -42 callsubr
            return
          </CharString>
          <CharString index="238">
            -107 callgsubr
            88 return
          </CharString>
          <CharString index="239">
            99 107 callgsubr
            return
          </CharString>
          <CharString index="240">
            52 234 callsubr
            return
          </CharString>
          <CharString index="241">
            274 514 -78 callsubr
            return
          </CharString>
          <CharString index="242">
            462 callgsubr
            hvcurveto
            537 callgsubr
            -57 118 callsubr
            39 -44 42 716 callgsubr
            -14 35 -38 -38 -61 694 callgsubr
            11 -16 vhcurveto
            -12 -21 -30 -5 -29 692 callgsubr
            97 68 46 118 hvcurveto
            return
          </CharString>
          <CharString index="243">
            446 callsubr
            -65 -165 506 callgsubr
            -48 257 callgsubr
            return
          </CharString>
          <CharString index="244">
            669 callsubr
            -12 vhcurveto
            4 292 callgsubr
            12 19 13 35 4 27 -125 22 -142 50 -57 96 81 callgsubr
            return
          </CharString>
          <CharString index="245">
            106 callgsubr
            -59 -107 return
          </CharString>
          <CharString index="246">
            577 callgsubr
            -43 -29 -49 -28 hvcurveto
            -25 20 -23 36 37 vvcurveto
            52 34 24 39 vhcurveto
            return
          </CharString>
          <CharString index="247">
            241 rmoveto
            313 callgsubr
            -619 -107 callgsubr
            380 180 callsubr
            -48 22 -56 hhcurveto
            327 callsubr
            return
          </CharString>
          <CharString index="248">
            298 callsubr
            35 hlineto
            -1 35 -14 31 -17 23 rrcurveto
            return
          </CharString>
          <CharString index="249">
            vlineto
            152 callgsubr
            return
          </CharString>
          <CharString index="250">
            151 callsubr
            vhcurveto
            return
          </CharString>
          <CharString index="251">
            118 callsubr
            38 -43 42 return
          </CharString>
          <CharString index="252">
            16 14 387 callsubr
            36 return
          </CharString>
          <CharString index="253">
            -20 165 callgsubr
            return
          </CharString>
          <CharString index="254">
            78 41 -47 -83 hvcurveto
            53 32 26 48 71 -78 59 -115 return
          </CharString>
          <CharString index="255">
            4 177 callsubr
            return
          </CharString>
          <CharString index="256">
            -21 -3 -32 -10 -31 -17 rrcurveto
            -37 233 callsubr
            return
          </CharString>
          <CharString index="257">
            -68 callsubr
            -43 27 65 454 callsubr
            hvcurveto
            return
          </CharString>
          <CharString index="258">
            71 52 39 72 42 33 -13 -16 27 return
          </CharString>
          <CharString index="259">
            vhcurveto
            10 6 13 19 6 13 rrcurveto
            57 return
          </CharString>
          <CharString index="260">
            rmoveto
            196 -197 hlineto
            -43 -35 -16 -34 648 callgsubr
            17 -13 rrcurveto
            69 25 52 50 84 vvcurveto
            192 130 -65 callgsubr
            -627 -107 callgsubr
            100 -210 hlineto
            -127 67 -55 51 -32 vhcurveto
            return
          </CharString>
          <CharString index="261">
            34 -17 -45 263 callsubr
            -31 -31 12 callgsubr
            return
          </CharString>
          <CharString index="262">
            -152 -165 50 hstem
            118 70 vstem
            240 44 rmoveto
            -58 -17 -64 -45 -68 117 callsubr
            -12 -19 -12 -23 hhcurveto
            -26 -19 15 33 41 24 27 44 19 hvcurveto
            endchar
          </CharString>
          <CharString index="263">
            292 callgsubr
            13 21 12 33 4 27 -124 22 -143 return
          </CharString>
          <CharString index="264">
            50 -55 147 callgsubr
            return
          </CharString>
          <CharString index="265">
            hhcurveto
            -70 -22 48 139 hvcurveto
            return
          </CharString>
          <CharString index="266">
            211 callsubr
            33 return
          </CharString>
          <CharString index="267">
            40 90 38 35 hhcurveto
            21 13 -12 -22 -51 -71 -54 -84 -14 -25 2 6 -17 hvcurveto
            27 -13 -32 48 -27 hhcurveto
            -27 -42 626 callsubr
            57 -16 hvcurveto
            35 -54 32 -82 21 -47 21 8 49 34 7 15 -11 21 -40 50 -38 42 rrcurveto
            return
          </CharString>
          <CharString index="268">
            -106 callsubr
            326 -88 hlineto
            190 callgsubr
            return
          </CharString>
          <CharString index="269">
            -20 200 callsubr
            return
          </CharString>
          <CharString index="270">
            284 callsubr
            68 308 callsubr
          </CharString>
          <CharString index="271">
            -168 233 130 145 24 1 45 3 -6 45 1 10 rlinecurve
            -171 hlineto
            -44 4 -46 -10 1 hvcurveto
            58 -6 return
          </CharString>
          <CharString index="272">
            -106 callsubr
            140 -30 callgsubr
            return
          </CharString>
          <CharString index="273">
            -57 -106 -39 -23 hhcurveto
            -12 -15 10 33 57 47 15 99 hvcurveto
            55 15 -3 26 hhcurveto
            15 9 19 23 3 20 rrcurveto
            endchar
          </CharString>
          <CharString index="274">
            vlineto
            36 -63 callgsubr
            endchar
          </CharString>
          <CharString index="275">
            106 77 hhcurveto
            7 406 callsubr
            return
          </CharString>
          <CharString index="276">
            77 206 callsubr
            return
          </CharString>
          <CharString index="277">
            rrcurveto
            -52 6 69 -51 29 hhcurveto
            18 16 14 12 26 -13 36 -7 21 hvcurveto
            126 73 rlineto
            2 -9 1 -8 -10 vvcurveto
            -43 -16 -36 -31 -31 vhcurveto
            21 -21 33 -16 30 -5 rrcurveto
            21 23 25 49 61 vvcurveto
            105 -67 81 -152 return
          </CharString>
          <CharString index="278">
            -147 152 rcurveline
            231 callgsubr
            return
          </CharString>
          <CharString index="279">
            321 callsubr
            -211 1 98 -132 194 hhcurveto
            return
          </CharString>
          <CharString index="280">
            416 callgsubr
            17 vhcurveto
            return
          </CharString>
          <CharString index="281">
            hhcurveto
            74 208 callsubr
            return
          </CharString>
          <CharString index="282">
            rmoveto
            -36 -34 -48 -30 -52 hhcurveto
            -49 -43 27 65 return
          </CharString>
          <CharString index="283">
            99 79 vvcurveto
            62 41 23 116 vhcurveto
            return
          </CharString>
          <CharString index="284">
            47 rrcurveto
            303 callsubr
            return
          </CharString>
          <CharString index="285">
            -78 -37 53 28 -12 hvcurveto
            -35 return
          </CharString>
          <CharString index="286">
            24 10 49 37 10 20 return
          </CharString>
          <CharString index="287">
            -109 hlineto
            25 -36 return
          </CharString>
          <CharString index="288">
            121 callsubr
            249 vlineto
            49 callgsubr
            -56 -43 -24 -24 -30 vhcurveto
            endchar
          </CharString>
          <CharString index="289">
            -31 -38 -10 -33 -39 return
          </CharString>
          <CharString index="290">
            hhcurveto
            381 callsubr
            return
          </CharString>
          <CharString index="291">
            rlineto
            36 -28 -55 23 -57 hhcurveto
            -93 -101 -57 -122 -114 85 -88 119 return
          </CharString>
          <CharString index="292">
            hhcurveto
            -57 -29 33 35 53 74 33 73 14 hvcurveto
            325 callsubr
            return
          </CharString>
          <CharString index="293">
            rmoveto
            37 27 28 37 37 -27 28 -37 -37 -28 -28 -37 -37 28 -28 37 hvcurveto
            return
          </CharString>
          <CharString index="294">
            78 356 74 44 89 hstemhm
            34 92 -19 99 144 96 10 86 25 79 return
          </CharString>
          <CharString index="295">
            23 613 callgsubr
            -2 -12 vhcurveto
            return
          </CharString>
          <CharString index="296">
            -88 callgsubr
            180 hlineto
            return
          </CharString>
          <CharString index="297">
            16 51 46 10 373 callgsubr
            -17 return
          </CharString>
          <CharString index="298">
            -7 -34 -11 -30 -15 rrcurveto
            -40 12 return
          </CharString>
          <CharString index="299">
            88 -49 88 76 84 72 89 hstemhm
            return
          </CharString>
          <CharString index="300">
            69 10 31 106 76 hhcurveto
            return
          </CharString>
          <CharString index="301">
            142 callsubr
            210 159 callgsubr
            -73 6 rlineto
            161 vlineto
            -13 29 31 -8 43 hhcurveto
            164 82 121 165 -2 hvcurveto
            178 -3 -99 65 -98 hhcurveto
            return
          </CharString>
          <CharString index="302">
            hlineto
            -43 -1 -32 -10 -10 -15 rrcurveto
            316 callgsubr
            return
          </CharString>
          <CharString index="303">
            18 -22 25 40 vvcurveto
            41 24 20 33 43 13 -38 -53 vhcurveto
            return
          </CharString>
          <CharString index="304">
            -32 -11 -15 -10 hvcurveto
            563 callsubr
            return
          </CharString>
          <CharString index="305">
            rmoveto
            -43 4 -48 -10 1 hvcurveto
            74 -6 -143 -263 rlineto
            return
          </CharString>
          <CharString index="306">
            25 50 396 callsubr
            return
          </CharString>
          <CharString index="307">
            rlineto
            -13 -1 -38 33 return
          </CharString>
          <CharString index="308">
            57 -19 43 vhcurveto
            return
          </CharString>
          <CharString index="309">
            497 callsubr
            214 62 -76 callgsubr
            return
          </CharString>
          <CharString index="310">
            504 63 rmoveto
            25 callsubr
            return
          </CharString>
          <CharString index="311">
            5 354 callgsubr
            17 12 hvcurveto
            1 24 -15 50 -6 return
          </CharString>
          <CharString index="312">
            -107 callgsubr
            147 hlineto
            return
          </CharString>
          <CharString index="313">
            109 89 hstem
            431 callgsubr
            return
          </CharString>
          <CharString index="314">
            240 16 callgsubr
            return
          </CharString>
          <CharString index="315">
            51 45 78 60 -31 55 -28 33 hvcurveto
            return
          </CharString>
          <CharString index="316">
            439 callgsubr
            -18 hhcurveto
            return
          </CharString>
          <CharString index="317">
            2 -17 -16 1 -16 hhcurveto
            return
          </CharString>
          <CharString index="318">
            87 113 vvcurveto
            42 -14 return
          </CharString>
          <CharString index="319">
            -44 -45 -2 -3 -53 hvcurveto
            -65 243 callgsubr
            5 10 -3 10 hhcurveto
            11 11 3 7 10 620 callsubr
            1 14 17 0 19 hhcurveto
            return
          </CharString>
          <CharString index="320">
            -19 -217 59 143 71 382 76 hstem
            87 102 240 107 vstem
            189 386 rmoveto
            34 38 31 18 43 hhcurveto
            89 39 -78 -110 -96 -27 -98 -99 -49 -41 23 20 -24 hvcurveto
            return
          </CharString>
          <CharString index="321">
            -53 callgsubr
            -431 188 rmoveto
            431 -117 hlineto
            133 callgsubr
            -44 -41 -12 -22 -32 hvcurveto
            return
          </CharString>
          <CharString index="322">
            -43 -36 -55 -26 -53 hhcurveto
            -51 -45 318 callgsubr
            -14 31 -17 23 vhcurveto
            return
          </CharString>
          <CharString index="323">
            vlineto
            334 callgsubr
            return
          </CharString>
          <CharString index="324">
            -42 -26 -27 -42 -32 22 -30 36 -4 hvcurveto
            -8 -26 -18 return
          </CharString>
          <CharString index="325">
            -35 19 -57 87 -37 vhcurveto
            683 callgsubr
            return
          </CharString>
          <CharString index="326">
            24 33 34 29 -24 -59 -78 -63 -57 -133 -19 vhcurveto
            return
          </CharString>
          <CharString index="327">
            15 -32 17 -22 vhcurveto
            106 hlineto
            -17 -18 -14 -31 -33 vvcurveto
            return
          </CharString>
          <CharString index="328">
            372 callgsubr
            -48 97 -74 hvcurveto
            return
          </CharString>
          <CharString index="329">
            30 324 callsubr
            return
          </CharString>
          <CharString index="330">
            16 16 15 387 callsubr
            35 return
          </CharString>
          <CharString index="331">
            22 -43 12 -46 -34 vvcurveto
            -16 return
          </CharString>
          <CharString index="332">
            46 634 callgsubr
            21 13 -12 -22 -52 -63 -52 -94 -82 -63 45 69 -59 hvcurveto
            -15 -6 -20 -15 -8 -19 rrcurveto
            -101 74 97 -58 105 221 callsubr
            return
          </CharString>
          <CharString index="333">
            353 callgsubr
            621 callsubr
            return
          </CharString>
          <CharString index="334">
            -15 vhcurveto
            24 -20 -32 28 return
          </CharString>
          <CharString index="335">
            -107 callgsubr
            129 -139 hlineto
            -44 -1 -32 -10 -10 -15 rrcurveto
            489 callsubr
            76 -91 49 14 17 5 8 8 vhcurveto
            17 16 12 37 61 vvcurveto
            return
          </CharString>
          <CharString index="336">
            320 callgsubr
            -130 43 -110 102 -24 vhcurveto
            -147 -102 179 callgsubr
            rlinecurve
            251 197 rlineto
            -164 121 callsubr
            return
          </CharString>
          <CharString index="337">
            54 37 57 60 60 hhcurveto
            35 545 callsubr
            51 36 71 562 callgsubr
          </CharString>
          <CharString index="338">
            -44 -32 -11 -15 -10 hvcurveto
            -5 269 callgsubr
            81 -91 44 14 16 4 8 8 vhcurveto
            return
          </CharString>
          <CharString index="339">
            529 callsubr
            -14 -14 -26 113 callgsubr
            return
          </CharString>
          <CharString index="340">
            173 callsubr
            10 3 10 5 8 6 rrcurveto
            return
          </CharString>
          <CharString index="341">
            39 15 21 33 return
          </CharString>
          <CharString index="342">
            9 578 65 hstem
            116 283 vstem
            116 643 268 callgsubr
          </CharString>
          <CharString index="343">
            122 callgsubr
            -15 33 -17 22 vhcurveto
            return
          </CharString>
          <CharString index="344">
            115 688 rmoveto
            217 callsubr
            -34 -29 -21 rrcurveto
            -8 19 -18 8 5 vhcurveto
            48 20 58 80 495 callgsubr
            return
          </CharString>
          <CharString index="345">
            18 -15 77 -62 60 245 56 265 57 630 callsubr
            210 109 hintmask 01111100
            return
          </CharString>
          <CharString index="346">
            rmoveto
            -8 13 -11 13 -14 8 -137 -87 rcurveline
            717 callsubr
            return
          </CharString>
          <CharString index="347">
            95 81 callgsubr
            return
          </CharString>
          <CharString index="348">
            hstem
            98 100 vstem
            174 callgsubr
            return
          </CharString>
          <CharString index="349">
            86 260 89 71 89 hstemhm
            36 84 207 99 -83 156 return
          </CharString>
          <CharString index="350">
            -5 -15 -3 -17 -16 vvcurveto
            457 callgsubr
            return
          </CharString>
          <CharString index="351">
            46 -55 18 353 callsubr
            hvcurveto
            return
          </CharString>
          <CharString index="352">
            -29 -33 -21 -34 -35 vvcurveto
            -21 6 -15 12 -11 vhcurveto
            return
          </CharString>
          <CharString index="353">
            hlineto
            -18 -18 -13 -31 -33 vvcurveto
            -84 74 -90 123 return
          </CharString>
          <CharString index="354">
            420 rmoveto
            460 callgsubr
            return
          </CharString>
          <CharString index="355">
            179 63 105 127 vhcurveto
            return
          </CharString>
          <CharString index="356">
            125 585 rmoveto
            7 26 18 35 29 20 rrcurveto
            8 -18 18 -8 -5 vhcurveto
            -48 -20 -58 -80 -67 vvcurveto
            -42 28 -28 40 42 26 27 42 32 -22 30 -36 4 vhcurveto
            return
          </CharString>
          <CharString index="357">
            rmoveto
            -17 18 -39 52 68 vvcurveto
            52 20 37 43 47 24 -40 -31 11 vhcurveto
            42 16 rlineto
            63 -4 -42 70 -87 hhcurveto
            -76 -47 -54 -74 -105 74 -79 37 -23 hvcurveto
            endchar
          </CharString>
          <CharString index="358">
            vlineto
            566 callsubr
            return
          </CharString>
          <CharString index="359">
            rmoveto
            363 -61 callgsubr
            return
          </CharString>
          <CharString index="360">
            137 -87 14 8 11 13 8 13 rlinecurve
            return
          </CharString>
          <CharString index="361">
            -101 279 callgsubr
            return
          </CharString>
          <CharString index="362">
            -107 callgsubr
            90 return
          </CharString>
          <CharString index="363">
            1 -19 hhcurveto
            -153 -83 -90 -105 return
          </CharString>
          <CharString index="364">
            hhcurveto
            -40 -48 24 66 hvcurveto
            hintmask 10111111
            65 46 40 69 39 30 -7 -18 26 vhcurveto
            21 47 rlineto
            32 -25 -53 23 -66 hhcurveto
            -84 -90 -48 -108 -95 80 -91 116 return
          </CharString>
          <CharString index="365">
            -148 152 rlineto
            302 callgsubr
            41 36 -10 -14 19 hvcurveto
            12 51 rlineto
            36 -28 -55 22 -57 hhcurveto
            -93 254 callsubr
            119 return
          </CharString>
          <CharString index="366">
            -17 rrcurveto
            21 -24 158 callgsubr
            return
          </CharString>
          <CharString index="367">
            75 callsubr
            29 return
          </CharString>
          <CharString index="368">
            hhcurveto
            -39 -46 -13 -14 -36 hvcurveto
            22 -3 29 -4 24 vhcurveto
            -2 22 -4 21 -5 18 rrcurveto
            return
          </CharString>
          <CharString index="369">
            hstemhm
            98 100 hintmask 11011000
            -42 616 rmoveto
            -34 15 -33 -100 callgsubr
            108 -509 hlineto
            -21 -69 callgsubr
            139 vlineto
            33 -14 34 -18 21 vhcurveto
            return
          </CharString>
          <CharString index="370">
            60 271 callgsubr
            return
          </CharString>
          <CharString index="371">
            90 -68 56 -88 -84 -65 -52 -80 -58 39 -48 44 -28 vhcurveto
            return
          </CharString>
          <CharString index="372">
            -5 -6 -2 -12 -13 453 callgsubr
            return
          </CharString>
          <CharString index="373">
            -162 0 234 callgsubr
            379.5 58 return
          </CharString>
          <CharString index="374">
            48 -51 -63 38 -48 hhcurveto
            -51 -56 -27 -22 -23 hvcurveto
            9 -27 return
          </CharString>
          <CharString index="375">
            -18 vhcurveto
            3 -10 10 -17 return
          </CharString>
          <CharString index="376">
            -31 16 vhcurveto
            -7 return
          </CharString>
          <CharString index="377">
            357 callgsubr
            -88 -99 -53 -113 -6 hvcurveto
            2 return
          </CharString>
          <CharString index="378">
            350 callsubr
            44 vhcurveto
            549 vlineto
            endchar
          </CharString>
          <CharString index="379">
            15 -13 -17 -37 -57 -43 -93 -78 -52 31 72 -58 hvcurveto
            -15 -8 -18 -15 -10 -14 return
          </CharString>
          <CharString index="380">
            -101 146 462 callgsubr
            vhcurveto
            170 callgsubr
            return
          </CharString>
          <CharString index="381">
            -47 24 66 65 46 40 69 40 32 -7 -10 26 hvcurveto
            239 178 rmoveto
            34 return
          </CharString>
          <CharString index="382">
            -69 39 -31 vhcurveto
            -3 6 9 -4 11 hhcurveto
            10 12 629 callsubr
            14 11 16 return
          </CharString>
          <CharString index="383">
            136 -124 28 -7 16 0 27 7 rlinecurve
            return
          </CharString>
          <CharString index="384">
            104 178.5 201 callgsubr
            return
          </CharString>
          <CharString index="385">
            -73 29 -49 21 39 vvcurveto
            33 34 24 46 vhcurveto
            return
          </CharString>
          <CharString index="386">
            10 457 callsubr
            return
          </CharString>
          <CharString index="387">
            -256 584 callsubr
            return
          </CharString>
          <CharString index="388">
            rlinecurve
            160 121 return
          </CharString>
          <CharString index="389">
            8 -24 30 -37 18 return
          </CharString>
          <CharString index="390">
            52 149 hvcurveto
            return
          </CharString>
          <CharString index="391">
            116 callgsubr
            -24 -41 callsubr
            return
          </CharString>
          <CharString index="392">
            -35 -7 -34 -11 -30 -15 rrcurveto
            -40 12 -35 33 54 232 callsubr
            return
          </CharString>
          <CharString index="393">
            32 18 -4 -2 17 hvcurveto
            12 -2 31 33 16 vvcurveto
            endchar
          </CharString>
          <CharString index="394">
            -23 78 15 92 249 74 -72 205 -201 68 44 89 hstemhm
            37 92 -19 99 145 95 5 86 30 80 226 78 128 100 return
          </CharString>
          <CharString index="395">
            423 529 rmoveto
            116 -84 callgsubr
            -529 -3 callgsubr
            315 -72 hlineto
            2 -20 -54 0 -20 hhcurveto
            return
          </CharString>
          <CharString index="396">
            rmoveto
            39 30 31 38 39 -30 31 -39 -39 -30 -31 -39 -38 30 -31 39 hvcurveto
            return
          </CharString>
          <CharString index="397">
            hhcurveto
            -56 -29 32 35 55 76 31 61 14 hvcurveto
            -7 26 -25 32 -16 16 rrcurveto
            return
          </CharString>
          <CharString index="398">
            rmoveto
            23 -6 15 0 21 6 26 208 rcurveline
            -39 7 -35 -3 -31 -10 rrcurveto
            return
          </CharString>
          <CharString index="399">
            -35 18 380 callsubr
            18 20 3 10 rrcurveto
            return
          </CharString>
          <CharString index="400">
            89 -56 67 hstemhm
            5 78 -30 89 97 140 -97 76 return
          </CharString>
          <CharString index="401">
            -62 -15 67 395 67 hstem
            37 106 243 107 vstem
            return
          </CharString>
          <CharString index="402">
            -106 -49 -25 -36 -63 -29 73 86 vhcurveto
            return
          </CharString>
          <CharString index="403">
            302 callsubr
            -20 19 rrcurveto
            return
          </CharString>
          <CharString index="404">
            59 92 70 72 236 89 -73 84 return
          </CharString>
          <CharString index="405">
            -45 199 callsubr
            return
          </CharString>
          <CharString index="406">
            95 176 89 110 89 hstem
            return
          </CharString>
          <CharString index="407">
            hvcurveto
            13 51 rlineto
            36 -29 -55 22 return
          </CharString>
          <CharString index="408">
            -22 -25 -14 -30 -38 vvcurveto
            return
          </CharString>
          <CharString index="409">
            430 callsubr
            26 return
          </CharString>
          <CharString index="410">
            14 17 1 19 hhcurveto
            return
          </CharString>
          <CharString index="411">
            17 54 49 11 return
          </CharString>
          <CharString index="412">
            639 callgsubr
            45 -27 hvcurveto
            1 vlineto
            554 callsubr
            return
          </CharString>
          <CharString index="413">
            -9 1 -52 rrcurveto
            -34 -27 -23 -39 -38 -25 23 28 -1 vhcurveto
            -31 -14 -18 -18 -31 40 -29 72 94 52 49 57 47 -35 35 -63 8 hvcurveto
            return
          </CharString>
          <CharString index="414">
            541 callsubr
            36 -4 rrcurveto
            -195 -21 callsubr
          </CharString>
          <CharString index="415">
            528 callsubr
            41 354 callsubr
          </CharString>
          <CharString index="416">
            -56 -46 -18 -15 return
          </CharString>
          <CharString index="417">
            412 callgsubr
            19 519 callgsubr
            -10 53 hhcurveto
            return
          </CharString>
          <CharString index="418">
            653 callgsubr
            -95 86 -131 57 -73 hvcurveto
            12 3 30 23 12 418 callsubr
            return
          </CharString>
          <CharString index="419">
            -178 -21 -1 -13 0 -38 33 -4 rlinecurve
            44 -4 rlineto
            -136 vlineto
            13 -29 -31 8 -43 hhcurveto
            -164 -83 -121 -165 3 hvcurveto
            return
          </CharString>
          <CharString index="420">
            570 callgsubr
            -63 -29 -31 -74 -21 vhcurveto
            -24 1 -24 0 -24 1 rrcurveto
            652 191 -99 callsubr
            return
          </CharString>
          <CharString index="421">
            -107 callgsubr
            343 -72 -111 hlineto
            -88 -54 -41 -76 return
          </CharString>
          <CharString index="422">
            646 callgsubr
            16 15 46 40 vvcurveto
            return
          </CharString>
          <CharString index="423">
            -508 -20 callgsubr
          </CharString>
          <CharString index="424">
            454 callsubr
            vhcurveto
            return
          </CharString>
          <CharString index="425">
            -69 50 -48 374 callgsubr
            return
          </CharString>
          <CharString index="426">
            hlineto
            451 callgsubr
            return
          </CharString>
          <CharString index="427">
            -21 37 -46 490 callsubr
            return
          </CharString>
          <CharString index="428">
            -213 -109 -157 -212 2 hvcurveto
            return
          </CharString>
          <CharString index="429">
            vlineto
            112 callgsubr
            return
          </CharString>
          <CharString index="430">
            -50 -67 -34 13 -31 24 -28 return
          </CharString>
          <CharString index="431">
            700 callsubr
            -32 43 -68 return
          </CharString>
          <CharString index="432">
            -7 27 -23 587 callsubr
            return
          </CharString>
          <CharString index="433">
            14 405 callsubr
            return
          </CharString>
          <CharString index="434">
            -91 501 callgsubr
            return
          </CharString>
          <CharString index="435">
            41 42 12 19 33 return
          </CharString>
          <CharString index="436">
            278 callsubr
            hintmask 11110000
            97 callsubr
            return
          </CharString>
          <CharString index="437">
            341 rmoveto
            -16 -35 -45 -8 -45 437 callsubr
            return
          </CharString>
          <CharString index="438">
            -50 -68 vvcurveto
            -145 132 -90 219 -44 vhcurveto
            8 15 11 28 4 18 rrcurveto
            -212 45 -65 68 88 vvcurveto
            110 104 44 return
          </CharString>
          <CharString index="439">
            vlineto
            126 hmoveto
            -47 hlineto
            -1 240 -17 2 -29 -2 -19 -4 rlinecurve
            -174 -245 2 -14 6 -11 9 -12 rlinecurve
            144 hlineto
            return
          </CharString>
          <CharString index="440">
            -34 47 -66 176 callsubr
            return
          </CharString>
          <CharString index="441">
            656 callgsubr
            -71 -44 -44 -50 -28 hvcurveto
            return
          </CharString>
          <CharString index="442">
            69 -126 154 hhcurveto
            53 40 16 16 29 hvcurveto
            return
          </CharString>
          <CharString index="443">
            199 69 261 89 hstem
            63 100 177 100 return
          </CharString>
          <CharString index="444">
            262 85 85 89 hstem
            33 89 194 99 vstem
            return
          </CharString>
          <CharString index="445">
            -2 5 624 callsubr
            15 663 callgsubr
            return
          </CharString>
          <CharString index="446">
            78 174 100 -9 65 return
          </CharString>
          <CharString index="447">
            -1 -4 0 -5 -4 vvcurveto
            return
          </CharString>
          <CharString index="448">
            69 -15 70 567 60 return
          </CharString>
          <CharString index="449">
            16 6 34 24 return
          </CharString>
          <CharString index="450">
            -126 103 -98 148 106 83 51 56 47 vhcurveto
            -11 24 -24 27 -27 638 callgsubr
            return
          </CharString>
          <CharString index="451">
            57 -1 -3 53 hvcurveto
            -305 -195 7 -24 31 -37 18 -11 rlinecurve
            256 185 rlineto
            -141 vlineto
            -22 56 -26 44 vhcurveto
            return
          </CharString>
          <CharString index="452">
            384 114 rmoveto
            -34 -38 -31 -18 -43 hhcurveto
            -89 -40 77 110 return
          </CharString>
          <CharString index="453">
            -26 -6 -27 -8 -24 -11 rrcurveto
            -31 7 -38 26 48 vvcurveto
            23 8 19 return
          </CharString>
          <CharString index="454">
            rmoveto
            356 callgsubr
            return
          </CharString>
          <CharString index="455">
            -22 201 callsubr
            return
          </CharString>
          <CharString index="456">
            157 69 117 77 -64 73 100 325 callgsubr
            177 574 callgsubr
            hintmask 1101111110000000
            return
          </CharString>
          <CharString index="457">
            18 -32 -42 15 -52 hhcurveto
            -84 -90 -48 -108 -95 80 -91 116 43 33 12 17 28 hvcurveto
            -111 vlineto
            -22 56 -19 return
          </CharString>
          <CharString index="458">
            -144 -100 rcurveline
            7 -24 31 -37 18 -11 252 197 rcurveline
            -162 -93 callgsubr
          </CharString>
          <CharString index="459">
            -150 -94 -112 -168 1 return
          </CharString>
          <CharString index="460">
            16 54 49 11 19 -48 55 -15 return
          </CharString>
          <CharString index="461">
            -88 355 callgsubr
          </CharString>
          <CharString index="462">
            -2 -2 -15 hvcurveto
            return
          </CharString>
          <CharString index="463">
            529 rmoveto
            212 -229 hlineto
            605 callgsubr
            451 226 rmoveto
            34 return
          </CharString>
          <CharString index="464">
            -118 14 callsubr
            return
          </CharString>
          <CharString index="465">
            vstem
            183 529 rmoveto
            201 -209 561 callsubr
            88 rmoveto
            return
          </CharString>
          <CharString index="466">
            11 10 1 hvcurveto
            6 24 -7 49 -1 21 413 122 rcurveline
            -67 681 callgsubr
          </CharString>
          <CharString index="467">
            -172 -15 67 397 65 hstemhm
            40 83 175 72 -62 87 return
          </CharString>
          <CharString index="468">
            -94 callsubr
            43 vhcurveto
            return
          </CharString>
          <CharString index="469">
            vvcurveto
            515 callsubr
            vhcurveto
            493 callsubr
            return
          </CharString>
          <CharString index="470">
            6 52 callsubr
            -6 return
          </CharString>
          <CharString index="471">
            -46 -18 -15 45 648 callsubr
            18 -48 56 -16 hvcurveto
            return
          </CharString>
          <CharString index="472">
            -51 callgsubr
            vhcurveto
            return
          </CharString>
          <CharString index="473">
            vvcurveto
            -44 568 callsubr
            return
          </CharString>
          <CharString index="474">
            77 84 494 callsubr
            return
          </CharString>
          <CharString index="475">
            29 4 6 22 hvcurveto
            -210 vlineto
            -22 return
          </CharString>
          <CharString index="476">
            429 callgsubr
            -95 105 return
          </CharString>
          <CharString index="477">
            hvcurveto
            126 458 callsubr
            return
          </CharString>
          <CharString index="478">
            14 27 30 21 hvcurveto
            119 return
          </CharString>
          <CharString index="479">
            -64 callgsubr
            rrcurveto
            return
          </CharString>
          <CharString index="480">
            130 -108 12 7 31 return
          </CharString>
          <CharString index="481">
            hhcurveto
            -36 -45 -14 -45 -45 hvcurveto
            return
          </CharString>
          <CharString index="482">
            hhcurveto
            -153 -105 -71 -128 return
          </CharString>
          <CharString index="483">
            -21 -18 -3 -5 -17 hvcurveto
            return
          </CharString>
          <CharString index="484">
            -9 18 -6 21 21 vvcurveto
            return
          </CharString>
          <CharString index="485">
            -23 -21 -3 -7 -20 hvcurveto
            return
          </CharString>
          <CharString index="486">
            10 21 19 rrcurveto
            -20 41 return
          </CharString>
          <CharString index="487">
            -57 87 -37 vhcurveto
            7 5 return
          </CharString>
          <CharString index="488">
            -44 -36 -19 -48 return
          </CharString>
          <CharString index="489">
            -76 -31 -16 -18 -18 4 -27 rlinecurve
            -52 5 72 -55 28 hhcurveto
            19 -1 16 15 13 vvcurveto
            1 23 -14 44 -6 20 return
          </CharString>
          <CharString index="490">
            vhcurveto
            -2 -11 -1 -11 -12 vvcurveto
            -96 82 -91 113 52 609 callsubr
            return
          </CharString>
          <CharString index="491">
            hlineto
            84 callsubr
            -44 -36 -19 -48 -32 18 -39 return
          </CharString>
          <CharString index="492">
            -103 hlineto
            -148 55 -121 134 328 callsubr
            vhcurveto
            132 callgsubr
            258 vlineto
            return
          </CharString>
          <CharString index="493">
            -53 -70 -18 -41 -76 hvcurveto
            -18 24 -23 18 -27 11 rrcurveto
            50 542 vlineto
            240 26 callsubr
            return
          </CharString>
          <CharString index="494">
            46 40 vvcurveto
            1 return
          </CharString>
          <CharString index="495">
            214 82 30 91 -79 77 114 342 callgsubr
            32 96 169 84 30 83 117 98 return
          </CharString>
          <CharString index="496">
            585 callgsubr
            -10 -16 9 33 57 45 11 100 hvcurveto
            53 17 -3 15 hhcurveto
            15 29 34 22 hvcurveto
            104 return
          </CharString>
          <CharString index="497">
            568 87 76 -60 70 195 77 -64 587 callgsubr
            174 79 51 86 239 548 callgsubr
            return
          </CharString>
          <CharString index="498">
            -39 17 -29 hvcurveto
            253 callgsubr
            return
          </CharString>
          <CharString index="499">
            -12 10 -33 148 callgsubr
            29 -24 -59 return
          </CharString>
          <CharString index="500">
            vhcurveto
            366 hlineto
            -300 vmoveto
            -31 -33 -47 -22 -46 hhcurveto
            -40 return
          </CharString>
          <CharString index="501">
            703 callsubr
            46 12 99 hvcurveto
            return
          </CharString>
          <CharString index="502">
            -126 -15 78 380 71 hstem
            37 106 216 75 vstem
            return
          </CharString>
          <CharString index="503">
            69 81 28 64 hvcurveto
            return
          </CharString>
          <CharString index="504">
            hhcurveto
            -72 -50 29 return
          </CharString>
          <CharString index="505">
            96 141 100 return
          </CharString>
          <CharString index="506">
            -99 -52 -118 -87 hhcurveto
            -19 -11 2 3 -12 hvcurveto
            8 22 4 27 30 689 callgsubr
            return
          </CharString>
          <CharString index="507">
            -100 -64 135 122 -31 vhcurveto
            7 -8 -23 11 -38 374 callsubr
            159 651 return
          </CharString>
          <CharString index="508">
            137 -86 15 8 11 13 8 13 rlinecurve
            return
          </CharString>
          <CharString index="509">
            81 72 84 -46 85 62 79 56 89 hstemhm
            return
          </CharString>
          <CharString index="510">
            hlineto
            -87 -50 -43 -73 -84 87 -64 48 hvcurveto
            return
          </CharString>
          <CharString index="511">
            61 hstem
            114 105 329 110 vstem
            return
          </CharString>
          <CharString index="512">
            12 16 194 callgsubr
            return
          </CharString>
          <CharString index="513">
            721 callsubr
            56 -19 return
          </CharString>
          <CharString index="514">
            30 -56 24 10 49 37 return
          </CharString>
          <CharString index="515">
            -14 -27 -18 vhcurveto
            3 -10 return
          </CharString>
          <CharString index="516">
            -82 hhcurveto
            -75 -85 return
          </CharString>
          <CharString index="517">
            79 callgsubr
            -70 -44 -18 -89 -20 vhcurveto
            12 return
          </CharString>
          <CharString index="518">
            2 157 -28 5 -36 -4 -24 -9 rlinecurve
            2 -149 -144 12 -9 -20 9 -43 13 -20 rlinecurve
            return
          </CharString>
          <CharString index="519">
            590 103 70 50 80 65 77 84 89 hstem
            381 callgsubr
            282 100 211 100 vstem
            return
          </CharString>
          <CharString index="520">
            722 callgsubr
            3 15 rrcurveto
            -41 22 -41 32 56 vvcurveto
            35 16 20 32 44 15 -39 -74 1 vhcurveto
            return
          </CharString>
          <CharString index="521">
            -21 -17 16 vhcurveto
            27 19 rlineto
            46 -13 -39 50 -78 hhcurveto
            -92 -65 -69 -80 -63 40 -51 37 -34 hvcurveto
            return
          </CharString>
          <CharString index="522">
            -7 -15 10 hvcurveto
            49 38 rlineto
            39 -29 -44 22 -54 hhcurveto
            return
          </CharString>
          <CharString index="523">
            -92 callsubr
            vlineto
            return
          </CharString>
          <CharString index="524">
            -177 3 99 -66 98 hhcurveto
            66 46 27 34 37 hvcurveto
            return
          </CharString>
          <CharString index="525">
            14 rrcurveto
            367 callgsubr
            return
          </CharString>
          <CharString index="526">
            rmoveto
            641 callgsubr
            return
          </CharString>
          <CharString index="527">
            90 138 73 -15 99 20 70 return
          </CharString>
          <CharString index="528">
            -99 129 432 callgsubr
            return
          </CharString>
          <CharString index="529">
            381 86 62 89 hstem
            37 89 return
          </CharString>
          <CharString index="530">
            -28 -38 -40 53 -30 56 -16 hvcurveto
            return
          </CharString>
          <CharString index="531">
            66 91 vvcurveto
            57 31 42 54 47 return
          </CharString>
          <CharString index="532">
            623 callsubr
            -46 -30 hvcurveto
            return
          </CharString>
          <CharString index="533">
            105 201 100 220 76 return
          </CharString>
          <CharString index="534">
            46 118 23 22 -1 -3 return
          </CharString>
          <CharString index="535">
            hhcurveto
            262 callgsubr
            hvcurveto
            return
          </CharString>
          <CharString index="536">
            hstem
            37 107 208 101 vstem
            return
          </CharString>
          <CharString index="537">
            5 vhcurveto
            -10 33 -18 return
          </CharString>
          <CharString index="538">
            12 17 3 15 rrcurveto
            return
          </CharString>
          <CharString index="539">
            37 57 59 59 hhcurveto
            return
          </CharString>
          <CharString index="540">
            53 94 -47 92 131 90 116 89 hstemhm
            370 83 206 97 140 100 hintmask 01111110
            return
          </CharString>
          <CharString index="541">
            24 11 19 42 callsubr
            return
          </CharString>
          <CharString index="542">
            20 240 callgsubr
            return
          </CharString>
          <CharString index="543">
            516 callgsubr
            79 -57 hvcurveto
            84 10 45 64 145 vvcurveto
            32 -4 45 -9 39 vhcurveto
            return
          </CharString>
          <CharString index="544">
            -60 callgsubr
            204 hlineto
            return
          </CharString>
          <CharString index="545">
            hstem
            112 102 return
          </CharString>
          <CharString index="546">
            36 32 32 25 return
          </CharString>
          <CharString index="547">
            -19 6 -27 10 -51 76 -55 29 2 18 2 24 19 -2 12 -2 24 -18 48 -7 20 return
          </CharString>
          <CharString index="548">
            -20 466 callsubr
            return
          </CharString>
          <CharString index="549">
            vvcurveto
            73 31 60 74 47 22 -23 -15 14 vhcurveto
            26 19 rlineto
            46 -12 -41 50 -75 hhcurveto
            -81 return
          </CharString>
          <CharString index="550">
            748 596 callgsubr
            27 93 226 100 return
          </CharString>
          <CharString index="551">
            -47 47 -37 vhcurveto
            hintmask 11101000
            -51 -25 -31 -43 -54 vvcurveto
            return
          </CharString>
          <CharString index="552">
            572 70 209 callgsubr
            return
          </CharString>
          <CharString index="553">
            302 callgsubr
            46 34 -12 -18 27 hvcurveto
            return
          </CharString>
          <CharString index="554">
            618 callsubr
            6 -9 rrcurveto
            8 return
          </CharString>
          <CharString index="555">
            44 -2 29 -52 69 -1 65 -1 34 43 12 76 return
          </CharString>
          <CharString index="556">
            423 callsubr
            35 -54 32 -82 return
          </CharString>
          <CharString index="557">
            -223 vlineto
            -47 -36 -49 -33 -45 hhcurveto
            return
          </CharString>
          <CharString index="558">
            133 67 329 89 hstem
            78 101 return
          </CharString>
          <CharString index="559">
            vhcurveto
            3 18 26 2 22 hhcurveto
            24 17 return
          </CharString>
          <CharString index="560">
            71 -15 76 191 60 321 65 return
          </CharString>
          <CharString index="561">
            71 52 39 71 532 callgsubr
            return
          </CharString>
          <CharString index="562">
            178 -99 callsubr
            return
          </CharString>
          <CharString index="563">
            660 callsubr
            -14 33 return
          </CharString>
          <CharString index="564">
            6 23 21 2 21 rrcurveto
            return
          </CharString>
          <CharString index="565">
            30 68 80 1 92 rrcurveto
            return
          </CharString>
          <CharString index="566">
            498 callsubr
            -71 return
          </CharString>
          <CharString index="567">
            725 callgsubr
            -82 hhcurveto
            return
          </CharString>
          <CharString index="568">
            6 -21 37 -47 19 return
          </CharString>
          <CharString index="569">
            -69 588 callgsubr
            return
          </CharString>
          <CharString index="570">
            218 callgsubr
            379 callgsubr
            69 return
          </CharString>
          <CharString index="571">
            34 17 24 28 18 16 -10 -24 -27 -29 -25 -41 -13 vhcurveto
            -5 12 -4 14 15 vvcurveto
            return
          </CharString>
          <CharString index="572">
            -84 callsubr
            -312 hlineto
            -34 18 -106 callsubr
            77 -266 hlineto
            return
          </CharString>
          <CharString index="573">
            -40 -21 callgsubr
            return
          </CharString>
          <CharString index="574">
            305 5 callgsubr
            122 206 vlineto
            return
          </CharString>
          <CharString index="575">
            hhcurveto
            -39 -47 -13 -14 -36 hvcurveto
            22 -2 29 -5 24 vhcurveto
            -2 22 -4 21 -5 18 rrcurveto
            return
          </CharString>
          <CharString index="576">
            rmoveto
            304 callsubr
            18 -48 56 -16 -14 -56 599 callgsubr
          </CharString>
          <CharString index="577">
            91 -39 73 -65 29 vhcurveto
            endchar
          </CharString>
          <CharString index="578">
            -31 -96 -21 vhcurveto
            return
          </CharString>
          <CharString index="579">
            706 callgsubr
            112 200 callgsubr
            return
          </CharString>
          <CharString index="580">
            -96 82 -91 114 51 609 callsubr
            return
          </CharString>
          <CharString index="581">
            326 callsubr
            -80 623 callgsubr
            57 31 42 54 46 36 return
          </CharString>
          <CharString index="582">
            54 callsubr
            -56 hhcurveto
            -94 -100 -56 -123 return
          </CharString>
          <CharString index="583">
            111 callgsubr
            42 -54 69 -25 vhcurveto
            return
          </CharString>
          <CharString index="584">
            526 callgsubr
            endchar
          </CharString>
          <CharString index="585">
            -71 -44 30 52 54 46 19 81 26 hvcurveto
            95 30 83 39 137 vvcurveto
            endchar
          </CharString>
          <CharString index="586">
            59 381.5 58.5 return
          </CharString>
          <CharString index="587">
            -12 22 -21 23 -24 16 rrcurveto
            -49 -39 -49 -31 return
          </CharString>
          <CharString index="588">
            239 455 callsubr
            return
          </CharString>
          <CharString index="589">
            rmoveto
            401 callsubr
            return
          </CharString>
          <CharString index="590">
            -79 62 -75 424 callsubr
            return
          </CharString>
          <CharString index="591">
            508 callsubr
            26 7 rlinecurve
            return
          </CharString>
          <CharString index="592">
            vhcurveto
            -9 -20 -25 -3 -21 583 callsubr
            return
          </CharString>
          <CharString index="593">
            14 -12 29 -1 7 7 18 18 20 48 10 return
          </CharString>
          <CharString index="594">
            -6 410 callgsubr
            76 518 callsubr
            vstem
            return
          </CharString>
          <CharString index="595">
            -33 547 callgsubr
          </CharString>
          <CharString index="596">
            -5 162 callgsubr
            return
          </CharString>
          <CharString index="597">
            19 341 callgsubr
            return
          </CharString>
          <CharString index="598">
            vvcurveto
            -36 45 -69 40 -31 vhcurveto
            return
          </CharString>
          <CharString index="599">
            -52 69 hhcurveto
            65 34 45 75 return
          </CharString>
          <CharString index="600">
            12 3 31 23 11 14 rrcurveto
            return
          </CharString>
          <CharString index="601">
            89 hstemhm
            381 callgsubr
            return
          </CharString>
          <CharString index="602">
            -8 -29 -23 -22 -34 1 rrcurveto
            return
          </CharString>
          <CharString index="603">
            -6 -2 -13 -12 vvcurveto
            return
          </CharString>
          <CharString index="604">
            438 callsubr
            vstem
            return
          </CharString>
          <CharString index="605">
            -96 88 -132 55 return
          </CharString>
          <CharString index="606">
            81 59 39 79 return
          </CharString>
          <CharString index="607">
            60 562 60 return
          </CharString>
          <CharString index="608">
            94 callgsubr
            hintmask 0110111110000000
            return
          </CharString>
          <CharString index="609">
            -99 callsubr
            -347 -107 callgsubr
            108 return
          </CharString>
          <CharString index="610">
            609 callgsubr
            18 -48 56 -15 hvcurveto
            return
          </CharString>
          <CharString index="611">
            -82 hhcurveto
            -75 -86 184 callgsubr
            126 -111 85 -61 hvcurveto
            14 12 return
          </CharString>
          <CharString index="612">
            -104 15 71 -125 160 hhcurveto
            return
          </CharString>
          <CharString index="613">
            184 407 callgsubr
            return
          </CharString>
          <CharString index="614">
            39 79 45 34 -13 -17 27 vhcurveto
            return
          </CharString>
          <CharString index="615">
            136 -124 28 -6 16 -1 return
          </CharString>
          <CharString index="616">
            -108 -2 -67 -79 -113 vvcurveto
            return
          </CharString>
          <CharString index="617">
            324 callgsubr
            vstem
            return
          </CharString>
          <CharString index="618">
            hhcurveto
            36 29 -21 -42 -55 -51 -57 return
          </CharString>
          <CharString index="619">
            rmoveto
            14 27 31 21 hvcurveto
            119 return
          </CharString>
          <CharString index="620">
            103 -65 39 -120 52 return
          </CharString>
          <CharString index="621">
            -166 -88 -38 -111 return
          </CharString>
          <CharString index="622">
            -102 86 -127 57 -74 return
          </CharString>
          <CharString index="623">
            584 callgsubr
            -69 return
          </CharString>
          <CharString index="624">
            10 -7 19 -11 7 vhcurveto
            return
          </CharString>
          <CharString index="625">
            105 206 100 return
          </CharString>
          <CharString index="626">
            19 -48 55 -16 return
          </CharString>
          <CharString index="627">
            145 callgsubr
            232 -23 hvcurveto
            12 19 13 35 4 27 return
          </CharString>
          <CharString index="628">
            -52 7 75 -63 29 hhcurveto
            19 23 18 12 hvcurveto
            1 24 -17 49 -7 21 return
          </CharString>
          <CharString index="629">
            44 34 -12 -17 27 hvcurveto
            240 177 -84 callsubr
            return
          </CharString>
          <CharString index="630">
            13 vhcurveto
            27 19 rlineto
            46 -13 -40 50 -75 hhcurveto
            -82 -53 -59 -66 -13 hvcurveto
            return
          </CharString>
          <CharString index="631">
            hvcurveto
            -12 -4 -31 -22 -5 -9 rrcurveto
            -87 38 121 -166 163 hhcurveto
            return
          </CharString>
          <CharString index="632">
            -16 callsubr
            68 -66 33 return
          </CharString>
          <CharString index="633">
            75 70 40 102 hvcurveto
            19 22 -2 10 hhcurveto
            19 28 33 20 hvcurveto
            endchar
          </CharString>
          <CharString index="634">
            700 callgsubr
            -14 10 33 57 46 15 return
          </CharString>
          <CharString index="635">
            509 callgsubr
            12 -33 return
          </CharString>
          <CharString index="636">
            vvcurveto
            55 439 callsubr
            600 callgsubr
            return
          </CharString>
          <CharString index="637">
            51 234 callsubr
            hvcurveto
            -44 callsubr
            return
          </CharString>
          <CharString index="638">
            rmoveto
            160 -74 callsubr
            return
          </CharString>
          <CharString index="639">
            -12 -26 -52 -87 hhcurveto
            return
          </CharString>
          <CharString index="640">
            63 101 166 100 return
          </CharString>
          <CharString index="641">
            27 15 34 37 vvcurveto
            return
          </CharString>
          <CharString index="642">
            17 41 46 -43 17 return
          </CharString>
          <CharString index="643">
            601 callgsubr
            8 return
          </CharString>
          <CharString index="644">
            -52 hvcurveto
            -66 -4 -38 return
          </CharString>
          <CharString index="645">
            89 -56 66 hstemhm
            return
          </CharString>
          <CharString index="646">
            100 hintmask 11010000
            174 callgsubr
            hintmask 11100000
            return
          </CharString>
          <CharString index="647">
            588 callsubr
            10 686 callgsubr
            53 3 35 rrcurveto
            return
          </CharString>
          <CharString index="648">
            168 callgsubr
            31 hhcurveto
            39 -1 37 -2 return
          </CharString>
          <CharString index="649">
            65 46 40 69 40 32 -7 -10 26 vhcurveto
            239 178 rmoveto
            34 return
          </CharString>
          <CharString index="650">
            -45 hvcurveto
            -17 -7 -25 -12 -14 -13 rrcurveto
            -77 33 69 -77 112 hhcurveto
            return
          </CharString>
          <CharString index="651">
            -150 79 -99 137 101 87 56 39 517 callsubr
            return
          </CharString>
          <CharString index="652">
            31 425 callsubr
            14 -26 23 -30 32 -18 rrcurveto
            return
          </CharString>
          <CharString index="653">
            1 -14 -13 1 -14 hhcurveto
            -133 -91 -63 -107 -105 94 -82 132 return
          </CharString>
          <CharString index="654">
            692 callsubr
            endchar
          </CharString>
          <CharString index="655">
            94 -73 73 -96 return
          </CharString>
          <CharString index="656">
            -47 56 -16 hvcurveto
            return
          </CharString>
          <CharString index="657">
            83 78 89 hstemhm
            return
          </CharString>
          <CharString index="658">
            304 callgsubr
            188 89 -56 77 hstemhm
            98 100 hintmask 11010000
            return
          </CharString>
          <CharString index="659">
            -3 23 -6 4 rrcurveto
            -9 -11 -19 -13 -24 hhcurveto
            -25 -19 16 33 return
          </CharString>
          <CharString index="660">
            191 80 88 724 callsubr
            42 90 -77 97 142 99 return
          </CharString>
          <CharString index="661">
            -50 callgsubr
            179 hlineto
            return
          </CharString>
          <CharString index="662">
            vvcurveto
            -102 86 -127 56 -74 vhcurveto
            13 3 30 700 callsubr
            return
          </CharString>
          <CharString index="663">
            -8 hlineto
            -45 33 -31 46 -16 vhcurveto
            13 4 14 13 6 10 rrcurveto
            return
          </CharString>
          <CharString index="664">
            80 -15 70 445 callsubr
            return
          </CharString>
          <CharString index="665">
            hhcurveto
            595 callsubr
            return
          </CharString>
          <CharString index="666">
            -45 60 409 callsubr
            -49 23 callsubr
            -110 return
          </CharString>
          <CharString index="667">
            597 callgsubr
            hvcurveto
            return
          </CharString>
          <CharString index="668">
            hlineto
            -47 -36 -49 -33 -45 hhcurveto
            -55 -16 283 callsubr
            301 return
          </CharString>
          <CharString index="669">
            283 vlineto
            47 697 callgsubr
            hhcurveto
            return
          </CharString>
          <CharString index="670">
            -5 269 callgsubr
            76 -91 return
          </CharString>
          <CharString index="671">
            420 rmoveto
            653 callsubr
            return
          </CharString>
          <CharString index="672">
            -35 -2 -45 73 callsubr
            return
          </CharString>
          <CharString index="673">
            239 15 callsubr
            return
          </CharString>
          <CharString index="674">
            2 12 8 17 12 14 51 3 40 return
          </CharString>
          <CharString index="675">
            80 -91 44 180 callgsubr
            vhcurveto
            return
          </CharString>
          <CharString index="676">
            339 81 109 89 hstem
            return
          </CharString>
          <CharString index="677">
            79 374 61 124 -20 return
          </CharString>
          <CharString index="678">
            -82 21 -47 601 callgsubr
            return
          </CharString>
          <CharString index="679">
            rmoveto
            652 callgsubr
            return
          </CharString>
          <CharString index="680">
            rmoveto
            -283 -65 283 hlineto
            return
          </CharString>
          <CharString index="681">
            -591 696 80 57 84 return
          </CharString>
          <CharString index="682">
            0 59 497 callsubr
            return
          </CharString>
          <CharString index="683" raw="1">
            f8a81d1e 0b  
          </CharString>
          <CharString index="684">
            79 661 callgsubr
            65 return
          </CharString>
          <CharString index="685">
            13 13 56 3 34 rrcurveto
            return
          </CharString>
          <CharString index="686">
            87 72 86 70 89 hstemhm
            return
          </CharString>
          <CharString index="687">
            -126 103 -98 147 return
          </CharString>
          <CharString index="688">
            80 -15 70 572 70 return
          </CharString>
          <CharString index="689">
            hhcurveto
            -69 -44 -43 -50 return
          </CharString>
          <CharString index="690">
            hhcurveto
            -59 -47 25 53 return
          </CharString>
          <CharString index="691">
            0 500 callsubr
            return
          </CharString>
          <CharString index="692">
            548 callsubr
            vhcurveto
            return
          </CharString>
          <CharString index="693">
            -130 -27 -51 -47 return
          </CharString>
          <CharString index="694">
            31 -18 17 rrcurveto
            return
          </CharString>
          <CharString index="695">
            -1 8 hhcurveto
            13 return
          </CharString>
          <CharString index="696">
            51 364 89 76 89 hstem
            114 91 240 100 vstem
            return
          </CharString>
          <CharString index="697">
            234 rmoveto
            -36 -45 callsubr
            -43 27 65 hvcurveto
            return
          </CharString>
          <CharString index="698">
            241 rmoveto
            -44 -40 -63 -34 -50 397 callgsubr
            hvcurveto
            return
          </CharString>
          <CharString index="699">
            -101 15 68 -126 155 hhcurveto
            52 41 16 16 29 hvcurveto
            return
          </CharString>
          <CharString index="700">
            vhcurveto
            -7 -22 -5 -21 -2 -16 10 -11 45 -25 29 -5 rrcurveto
            return
          </CharString>
          <CharString index="701">
            655 callgsubr
            hstem
            -401 79 420 100 vstem
            return
          </CharString>
          <CharString index="702">
            530 callsubr
            56 -19 44 vhcurveto
            return
          </CharString>
          <CharString index="703">
            81 22 45 45 vhcurveto
            2 52 rmoveto
            -91 -50 -60 -117 hvcurveto
            return
          </CharString>
          <CharString index="704">
            404 callsubr
            219 64 rmoveto
            return
          </CharString>
          <CharString index="705">
            16 vvcurveto
            27 27 14 97 vhcurveto
            endchar
          </CharString>
          <CharString index="706">
            47 94 -178 return
          </CharString>
          <CharString index="707">
            90 243 100 return
          </CharString>
          <CharString index="708">
            100 188 rmoveto
            return
          </CharString>
          <CharString index="709">
            rrcurveto
            338 callsubr
            return
          </CharString>
          <CharString index="710">
            343 169 callsubr
            vstem
            return
          </CharString>
          <CharString index="711">
            rmoveto
            448 callgsubr
            return
          </CharString>
          <CharString index="712">
            -102 callsubr
            -637 -107 callgsubr
            return
          </CharString>
          <CharString index="713">
            318 callsubr
            3 14 rrcurveto
            return
          </CharString>
          <CharString index="714">
            -46 -1 -47 -6 -40 -14 rrcurveto
            -22 21 -12 23 25 vvcurveto
            return
          </CharString>
          <CharString index="715">
            hlineto
            250 -196 rmoveto
            207 196 -207 hlineto
            return
          </CharString>
          <CharString index="716">
            234 callsubr
            vhcurveto
            -72 callgsubr
            44 vhcurveto
            return
          </CharString>
          <CharString index="717">
            87 72 86 71 89 hstemhm
            33 78 174 100 -9 64 return
          </CharString>
          <CharString index="718">
            -111 -104 callsubr
          </CharString>
          <CharString index="719">
            -163 -104 callsubr
          </CharString>
          <CharString index="720">
            -88 hlineto
            210 callsubr
            return
          </CharString>
          <CharString index="721">
            682 callsubr
            hvcurveto
            return
          </CharString>
          <CharString index="722">
            20 rmoveto
            397 71 -397 hlineto
            return
          </CharString>
          <CharString index="723">
            29 689 callgsubr
            return
          </CharString>
          <CharString index="724">
            -81 576 callgsubr
            return
          </CharString>
          <CharString index="725">
            -20 -8 -18 hvcurveto
            3 -23 21 -57 return
          </CharString>
          <CharString index="726" raw="1">
            7a93adc3 b997ee1f 0b 
          </CharString>
          <CharString index="727">
            hvcurveto
            14 12 16 53 4 46 rrcurveto
            return
          </CharString>
          <CharString index="728">
            hvcurveto
            279 callsubr
            return
          </CharString>
          <CharString index="729">
            -87 355 callgsubr
          </CharString>
          <CharString index="730">
            -21 -51 -76 -69 -68 return
          </CharString>
          <CharString index="731">
            7 588 callsubr
            return
          </CharString>
          <CharString index="732">
            89 hstemhm
            369 83 return
          </CharString>
          <CharString index="733">
            -27 -38 -41 55 -30 return
          </CharString>
          <CharString index="734">
            89 hstemhm
            181 85 return
          </CharString>
          <CharString index="735">
            6 rlineto
            313 vlineto
            return
          </CharString>
          <CharString index="736">
            4 7 9 hvcurveto
            return
          </CharString>
          <CharString index="737">
            hstemhm
            115 105 return
          </CharString>
          <CharString index="738">
            32 0 30 hhcurveto
            return
          </CharString>
          <CharString index="739">
            25 -36 -48 22 return
          </CharString>
          <CharString index="740">
            -104 -55 -72 -73 return
          </CharString>
          <CharString index="741">
            85 184 100 return
          </CharString>
          <CharString index="742">
            -256 507 callgsubr
            105 vstem
            return
          </CharString>
          <CharString index="743">
            -87 283 25 -83 vvcurveto
            -13 -4 -12 -6 -11 vhcurveto
            return
          </CharString>
          <CharString index="744">
            vvcurveto
            -131 126 -111 85 -61 vhcurveto
            14 12 return
          </CharString>
          <CharString index="745">
            hlineto
            1 -14 -13 1 -14 hhcurveto
            -139 -91 -71 -103 return
          </CharString>
          <CharString index="746">
            13 21 12 33 5 27 -125 23 -144 50 return
          </CharString>
          <CharString index="747">
            193 callsubr
            18 14 -4 -6 12 hvcurveto
            return
          </CharString>
          <CharString index="748">
            -2 5 8 -1 7 hhcurveto
            14 14 663 callgsubr
            return
          </CharString>
          <CharString index="749">
            529 rmoveto
            456 callgsubr
            return
          </CharString>
          <CharString index="750">
            -29 26 -10 27 16 vvcurveto
            27 39 15 145 vhcurveto
            return
          </CharString>
          <CharString index="751">
            138 69 322 89 hstem
            63 101 177 99 return
          </CharString>
          <CharString index="752">
            -32 -10 -16 -10 hvcurveto
            -5 -6 -2 -12 -12 vvcurveto
            -45 return
          </CharString>
          <CharString index="753">
            23 -43 12 -46 -34 vvcurveto
            -16 -3 631 callgsubr
            return
          </CharString>
          <CharString index="754">
            91 -39 74 -66 28 vhcurveto
            endchar
          </CharString>
          <CharString index="755">
            -55 18 17 54 48 12 return
          </CharString>
          <CharString index="756">
            -23 -36 vvcurveto
            -49 49 -66 return
          </CharString>
          <CharString index="757">
            -4 -2 22 hvcurveto
            15 6 return
          </CharString>
          <CharString index="758">
            -124 9 -16 8 -9 return
          </CharString>
          <CharString index="759">
            rmoveto
            -71 397 71 vlineto
            return
          </CharString>
          <CharString index="760">
            632 callsubr
            -55 hhcurveto
            return
          </CharString>
          <CharString index="761">
            -44 -31 -11 -15 -11 hvcurveto
            return
          </CharString>
          <CharString index="762">
            -9 -15 -4 -18 -22 vvcurveto
            return
          </CharString>
          <CharString index="763">
            699 callgsubr
            28 60 return
          </CharString>
          <CharString index="764">
            rmoveto
            42 22 -43 -80 hvcurveto
            return
          </CharString>
          <CharString index="765">
            -36 76 489 89 hstemhm
            return
          </CharString>
          <CharString index="766">
            vlineto
            -21 56 -20 44 vhcurveto
            return
          </CharString>
          <CharString index="767">
            239 hmoveto
            34 return
          </CharString>
          <CharString index="768">
            81 78 89 hstemhm
            return
          </CharString>
          <CharString index="769">
            20 14 vhcurveto
            2 return
          </CharString>
          <CharString index="770">
            21 18 rrcurveto
            -20 return
          </CharString>
          <CharString index="771">
            -40 -41 -40 -26 38 84 vhcurveto
            hintmask 0101111111100000
            82 return
          </CharString>
          <CharString index="772">
            36 -32 -30 16 vhcurveto
            -7 -22 -5 -21 -2 -16 return
          </CharString>
          <CharString index="773">
            hhcurveto
            8 8 2 9 8 hvcurveto
            13 15 15 49 return
          </CharString>
          <CharString index="774">
            101 84 172 89 83 89 hstem
            115 90 return
          </CharString>
          <CharString index="775">
            hstemhm
            52 138 -112 90.5 return
          </CharString>
          <CharString index="776">
            hlineto
            76 callgsubr
            -14 -4 return
          </CharString>
          <CharString index="777">
            23 9 20 11 hvcurveto
            36 -3 rlineto
            -569 vlineto
            return
          </CharString>
          <CharString index="778">
            39 63 48 22 -23 -12 13 vhcurveto
            20 16 rlineto
            return
          </CharString>
          <CharString index="779">
            hlineto
            -24 26 -29 42 55 vvcurveto
            57 31 40 56 return
          </CharString>
          <CharString index="780">
            376 callgsubr
            691 callgsubr
            return
          </CharString>
          <CharString index="781">
            373 callsubr
            30 8 16 rlinecurve
            return
          </CharString>
          <CharString index="782">
            -1 -8 -9 0 -8 hhcurveto
            -90 -36 45 56 56 return
          </CharString>
          <CharString index="783">
            -25 -25 -15 -29 -39 vvcurveto
            -90 82 -68 133 return
          </CharString>
          <CharString index="784">
            -107 callgsubr
            86 -123 hlineto
            return
          </CharString>
          <CharString index="785">
            -18 -42 1 vhcurveto
            36 31 535 callsubr
            return
          </CharString>
          <CharString index="786">
            68 528 callsubr
            return
          </CharString>
          <CharString index="787">
            -20 rlineto
            -13 -1 -36 29 -3 vhcurveto
            47 -6 rlineto
            return
          </CharString>
          <CharString index="788">
            -80 86 -105 53 -51 17 6 return
          </CharString>
          <CharString index="789">
            -34 -49 397 callgsubr
            return
          </CharString>
          <CharString index="790">
            vlineto
            340 callsubr
            return
          </CharString>
          <CharString index="791">
            -16 -46 61 -82 hhcurveto
            -74 -86 return
          </CharString>
          <CharString index="792">
            500 callsubr
            hstem
            115 return
          </CharString>
          <CharString index="793">
            96 170 84 126 100 return
          </CharString>
          <CharString index="794">
            155 0 60 248 61 return
          </CharString>
          <CharString index="795">
            90 195 99 -88 152 return
          </CharString>
          <CharString index="796">
            -39 -2 -2 -53 hvcurveto
            -58 -4 return
          </CharString>
          <CharString index="797">
            hstem
            88 104 310 70 vstem
            return
          </CharString>
          <CharString index="798">
            1 hvcurveto
            73 -6 rlineto
            return
          </CharString>
          <CharString index="799">
            -43 -24 -23 -30 hvcurveto
            return
          </CharString>
          <CharString index="800">
            53 -72 -71 38 hvcurveto
            return
          </CharString>
          <CharString index="801">
            hhcurveto
            -74 -71 36 88 return
          </CharString>
          <CharString index="802">
            13 3 30 23 11 return
          </CharString>
          <CharString index="803">
            37 77 0 -20 hstemhm
            return
          </CharString>
          <CharString index="804" raw="1">
            f72a1bd5 0b  
          </CharString>
          <CharString index="805">
            hstemhm
            37 109 return
          </CharString>
          <CharString index="806" raw="1">
            f8fe1569 0b  
          </CharString>
          <CharString index="807">
            23 12 14 rrcurveto
            return
          </CharString>
          <CharString index="808">
            27 -28 18 rrcurveto
            return
          </CharString>
          <CharString index="809">
            vlineto
            112 callsubr
            return
          </CharString>
          <CharString index="810">
            585 callgsubr
            -9 -17 8 34 56 return
          </CharString>
          <CharString index="811">
            -107 callgsubr
            140 hlineto
            return
          </CharString>
          <CharString index="812">
            69 19 14 37 26 vvcurveto
            49 -46 29 -71 return
          </CharString>
          <CharString index="813">
            -15 -10 hvcurveto
            489 callsubr
            return
          </CharString>
          <CharString index="814">
            529 89 -53 64 hstemhm
            72 88 120 return
          </CharString>
          <CharString index="815">
            25 26 -18 19 -26 -25 -19 -19 -26 vhcurveto
            return
          </CharString>
          <CharString index="816">
            hvcurveto
            67 3 rlineto
            115 -28 -91 208 return
          </CharString>
          <CharString index="817">
            -308 -194 918 hstem
            100 83 vstem
            return
          </CharString>
          <CharString index="818">
            -288 vmoveto
            -44 -40 -63 -34 -50 hhcurveto
            -41 return
          </CharString>
          <CharString index="819">
            4 rrcurveto
            17 14 15 49 40 vvcurveto
            30 2 return
          </CharString>
          <CharString index="820">
            -96 82 -91 113 133 callsubr
            return
          </CharString>
          <CharString index="821">
            -206 -106 803 hstem
            20 345 vstem
            return
          </CharString>
          <CharString index="822">
            145 -13 9 20 -9 43 -13 20 rlinecurve
            return
          </CharString>
          <CharString index="823">
            163 -73 -163 -163 -71 163 return
          </CharString>
          <CharString index="824">
            -138 87 -15 -9 -8 -9 -9 -16 rlinecurve
            return
          </CharString>
          <CharString index="825">
            67 callgsubr
            vhcurveto
            return
          </CharString>
          <CharString index="826">
            20 -5 18 16 vvcurveto
            23 13 15 98 vhcurveto
            return
          </CharString>
          <CharString index="827">
            -43 -25 -23 -30 vhcurveto
            endchar
          </CharString>
          <CharString index="828">
            -349 hlineto
            -22 return
          </CharString>
          <CharString index="829">
            21 4 14 rrcurveto
            return
          </CharString>
          <CharString index="830">
            -167 vlineto
            -22 return
          </CharString>
          <CharString index="831">
            91 79 89 hstemhm
            return
          </CharString>
          <CharString index="832">
            92 337 89 return
          </CharString>
        <CharString name=".notdef">
          -73 0 52 597 52 hstem
          4 55 400 55 vstem
          4 hmoveto
          510 701 -510 hlineto
          55 -52 rmoveto
          400 -597 -400 hlineto
          200 250 rmoveto
          105 -209 rlineto
          60 hlineto
          -135 254 135 261 rlineto
          -60 hlineto
          -100 -206 rlineto
          -4 hlineto
          -105 206 rlineto
          -60 hlineto
          134 -255 -134 -260 rlineto
          60 hlineto
          100 209 rlineto
          endchar
        </CharString>
        <CharString name="A">
          673 callsubr
          226 281 -97 callsubr
        </CharString>
        <CharString name="AE">
          298 0 60 -60 67 232 60 260 63.5 hstemhm
          435 105 232.5 234 callgsubr
          -41.5 234 callgsubr
          hintmask 01111010
          305 359 rmoveto
          124 261 6 -1 rlineto
          -260 vlineto
          353 -288 rmoveto
          -248 -8 rlineto
          242 vlineto
          185 -10 5 28 0 36 -6 25 rlinecurve
          -184 -18 rlineto
          255 vlineto
          hintmask 10111100
          228 -4 9 -116 rlineto
          10 -1 47 -4 39 vvcurveto
          148 vlineto
          -441 -1 -303 -621 -39 -2 rlineto
          hintmask 01111010
          372 callsubr
          130 callsubr
          hintmask 10111010
          -78 6 112 236 rlineto
          159 -238 hlineto
          -35 -2 rlineto
          hintmask 01111010
          210 callgsubr
          493 153 hlineto
          40 -47 -5 -10 -1 vhcurveto
          endchar
        </CharString>
        <CharString name="Aacute">
          673 callsubr
          485 840 rmoveto
          -11 21 -33 64 callsubr
          -55 -450 -97 callsubr
        </CharString>
        <CharString name="Abreve">
          376 callgsubr
          457 77 80 -20 691 callgsubr
          452 895 rmoveto
          -28 532 callsubr
          -79 -37 53 28 -11 hvcurveto
          -35 -19 rlineto
          -66 8 50 -73 103 hhcurveto
          101 51 73 66 9 hvcurveto
          -261 -596 -97 callsubr
        </CharString>
        <CharString name="Acircumflex">
          376 callgsubr
          527 77 691 callgsubr
          324 808 482 callsubr
          -133 124 513 callgsubr
          rlinecurve
          -136 651 callsubr
          15 -9 rlinecurve
          39 -441 -97 callsubr
        </CharString>
        <CharString name="Adieresis">
          376 callgsubr
          472 126 hstem
          167 127 55 126 vstem
          411 753 rmoveto
          37 27 28 35 34 -27 29 -37 -34 -28 -29 -34 -35 28 -28 34 hvcurveto
          -179 hmoveto
          35 27 28 35 34 -27 29 -35 -36 -29 -29 -34 -35 29 -28 36 hvcurveto
          -6 -472 -97 callsubr
        </CharString>
        <CharString name="Agrave">
          673 callsubr
          255 898 -10 callsubr
          -196 -484 -97 callsubr
        </CharString>
        <CharString name="Amacron">
          376 callgsubr
          480 65 691 callgsubr
          466 826 573 callsubr
          -240 -480 -97 callsubr
        </CharString>
        <CharString name="Aogonek">
          50 -178 49 129 60 161 60 hstem
          468 70 vstem
          226 281 rmoveto
          81 276 77 -276 rlineto
          175 -218 rmoveto
          -190 619 -33 3 -20 1 -34 -4 rlinecurve
          -192 -621 -39 -52 callgsubr
          130 callsubr
          -79 6 46 158 rlineto
          192 hlineto
          44 -160 112 callsubr
          154 hlineto
          -33 -23 -24 -34 -43 350 callgsubr
          36 18 26 34 18 hvcurveto
          42 1 -4 46 -1 10 rrcurveto
          endchar
        </CharString>
        <CharString name="Aring">
          376 callgsubr
          448 45 87 47 hstem
          234 50 88 49 vstem
          328 861 rmoveto
          26 18 -16 -27 -27 -18 -17 -26 -27 -17 17 27 27 17 16 27 hvcurveto
          -2 -132 rmoveto
          56 38 36 55 1 hvcurveto
          52 1 -36 36 -56 hhcurveto
          -57 -39 -37 -55 -52 37 -35 55 hvcurveto
          -100 -448 -97 callsubr
        </CharString>
        <CharString name="Atilde">
          376 callgsubr
          465 78 -26 83 hstemhm
          12 616 hintmask 11101000
          465 875 rmoveto
          -29 -7 -22 -22 -35 -54 -25 57 -61 hhcurveto
          hintmask 11011000
          360 callgsubr
          hintmask 11101000
          45 29 492 callsubr
          11 hvcurveto
          -271 -585 -97 callsubr
        </CharString>
        <CharString name="B">
          -17 0 62 263 54 247 57 hstemhm
          116 105 188 109 -77 108 hintmask 11110100
          221 63 rmoveto
          261 vlineto
          41 1 rlineto
          118 1 61 -36 -97 vvcurveto
          -80 -45 -52 -119 1 vhcurveto
          -12 565 rmoveto
          hintmask 11111000
          83 6 61 -33 -92 vvcurveto
          -80 -42 -49 -117 vhcurveto
          -29 246 hlineto
          -144 58 rmoveto
          -34 -1 -47 -10 691 callsubr
          -558 vlineto
          -38 -4 -28 -2 -7 -21 -1 -35 rlinecurve
          260 hlineto
          hintmask 11110100
          158 90 77 128 -1 hvcurveto
          93 -68 50 -82 12 vhcurveto
          hintmask 11111000
          76 28 43 56 77 vvcurveto
          80 -58 82 -163 vhcurveto
          endchar
        </CharString>
        <CharString name="C">
          55 callsubr
          endchar
        </CharString>
        <CharString name="CR">
          -591 endchar
        </CharString>
        <CharString name="Cacute">
          55 callsubr
          143 143 rmoveto
          -10 21 -34 64 callsubr
          endchar
        </CharString>
        <CharString name="Ccaron">
          -5 -15 79 559 74 698 callsubr
          319 85 -8 15 hintmask 11101000
          509 863 -1 callgsubr
          -8 -16 rlinecurve
          484 callsubr
          167 -614 rmoveto
          105 callsubr
          hintmask 11110000
          147 callsubr
          172 callsubr
          hintmask 11101000
          131 96 66 45 10 -6 13 -9 6 hvcurveto
          endchar
        </CharString>
        <CharString name="Ccedilla">
          -5 626 callgsubr
          31 78 559 74 698 callsubr
          213 72 34 85 -8 15 hintmask 11111101
          288 -83 rmoveto
          110 callgsubr
          36 hhcurveto
          59 39 35 48 37 -23 35 -60 hvcurveto
          7 31 rlineto
          118 8 84 60 42 vvcurveto
          10 -6 13 -9 6 vhcurveto
          105 callsubr
          hintmask 11111110
          147 callsubr
          321 callsubr
          1 -202 90 -130 178 -10 rrcurveto
          endchar
        </CharString>
        <CharString name="Ccircumflex">
          -5 -15 79 559 74 112 76 0 -20 698 callsubr
          319 85 -8 15 hintmask 11101010
          340 809 -86 callgsubr
          340 -597 rmoveto
          105 callsubr
          hintmask 11011100
          147 callsubr
          172 callsubr
          hintmask 11011010
          131 96 66 45 hvcurveto
          hintmask 11101010
          10 -6 13 -9 6 vhcurveto
          endchar
        </CharString>
        <CharString name="Cdotaccent">
          -5 -15 79 559 74 64 130 698 callsubr
          133 129 57 85 -8 15 hintmask 11111100
          343 761 21 callsubr
          14 -64 rmoveto
          172 callsubr
          hintmask 11111010
          131 96 66 45 10 -6 13 -9 6 hvcurveto
          105 callsubr
          hintmask 11111100
          147 callsubr
          hvcurveto
          endchar
        </CharString>
        <CharString name="D">
          103 0 61 561 597 callsubr
          556 40 callsubr
          -557 60 callgsubr
        </CharString>
        <CharString name="Dcaron">
          103 0 61 561 404 callsubr
          478 863 rmoveto
          -9 13 -10 14 662 callgsubr
          -87 rcurveline
          -138 87 -15 -9 -8 -9 -9 -17 rlinecurve
          136 -123 29 -7 15 0 27 7 rlinecurve
          -125 -676 rmoveto
          556 40 callsubr
          -557 60 callgsubr
        </CharString>
        <CharString name="Dcroat">
          31 callgsubr
        </CharString>
        <CharString name="E">
          -62 callgsubr
          endchar
        </CharString>
        <CharString name="Eacute">
          -62 callgsubr
          255 475 rmoveto
          -10 21 -34 64 callsubr
          endchar
        </CharString>
        <CharString name="Ebreve">
          43 callgsubr
          56 77 80 -20 -6 callsubr
          hintmask 01111101
          317 815 rmoveto
          50 callgsubr
          -35 18 rlineto
          -28 532 callsubr
          -97 -195 rmoveto
          hintmask 10111110
          -67 callsubr
          hintmask 01111101
          -59 callgsubr
          endchar
        </CharString>
        <CharString name="Ecaron">
          43 callgsubr
          -6 callsubr
          hintmask 01110100
          484 863 -1 callgsubr
          -9 -16 rlinecurve
          276 callgsubr
          115 -668 rmoveto
          203 callgsubr
          hintmask 10111000
          -67 callsubr
          hintmask 01110100
          477 callsubr
        </CharString>
        <CharString name="Ecircumflex">
          43 callgsubr
          127 76 0 -20 -6 callsubr
          hintmask 01110101
          315 809 -86 callgsubr
          288 -651 rmoveto
          203 callgsubr
          hintmask 10101110
          -67 callsubr
          hintmask 01101101
          477 callsubr
        </CharString>
        <CharString name="Edieresis">
          43 callgsubr
          71 126 630 callsubr
          -62 126 55 127 -13.5 234 callgsubr
          -44.5 201 callgsubr
          hintmask 0110100010000000
          220 620 rmoveto
          hintmask 1010100100000000
          -67 callsubr
          hintmask 0110100010000000
          -59 callgsubr
          hintmask 0111011000000000
          2 388 rmoveto
          35 27 28 35 34 -27 29 -35 -36 -28 -29 -34 -35 28 -28 36 hvcurveto
          179 hmoveto
          37 211 callgsubr
          -37 -34 -28 -29 -34 -35 28 -28 34 hvcurveto
          endchar
        </CharString>
        <CharString name="Edotaccent">
          43 callgsubr
          79 130 630 callsubr
          34 129 69.5 234 callgsubr
          -44.5 201 callgsubr
          hintmask 01111001
          220 620 rmoveto
          hintmask 10111010
          -67 callsubr
          hintmask 01111101
          -59 callgsubr
          99 396 186 callsubr
          endchar
        </CharString>
        <CharString name="Egrave">
          -62 callgsubr
          154 363 0 callsubr
        </CharString>
        <CharString name="Emacron">
          43 callgsubr
          79 65 -6 callsubr
          hintmask 01111010
          220 620 rmoveto
          hintmask 10111100
          -67 callsubr
          hintmask 01111010
          -59 callgsubr
          -47 461 268 callgsubr
        </CharString>
        <CharString name="Eng">
          102 -184 73 111 685 callsubr
          69 144 72 129 69 vstem
          496 682 252 callgsubr
          -432 vlineto
          -327 495 rlineto
          -121 -81 callgsubr
          177 -42 callsubr
          -73 693 callgsubr
          340 -514 rlineto
          -63 -21 -56 -54 -35 -14 27 41 vhcurveto
          -53 -19 -30 -36 -40 39 -35 58 111 62 98 117 hvcurveto
          590 167 callsubr
        </CharString>
        <CharString name="Eogonek">
          -26 -177 49 128 60 -60 67 551.5 63.5 630 callsubr
          171 70 -8.5 234 callgsubr
          -44.5 201 callgsubr
          hintmask 00111001
          530 hmoveto
          153 vlineto
          -33 callgsubr
          255 vlineto
          hintmask 01011010
          -67 callsubr
          hintmask 10111101
          210 callgsubr
          406 hlineto
          -32 -23 -24 -34 -42 vvcurveto
          -44 35 -34 58 34 34 13 20 14 vhcurveto
          2 11 552 callsubr
          36 17 25 34 18 hvcurveto
          endchar
        </CharString>
        <CharString name="Eth">
          31 callgsubr
        </CharString>
        <CharString name="Euro">
          -52 -16 69 159 60 51 61 177 66 hstemhm
          89 99 244 77 -16 13 hintmask 11111100
          373 212 rmoveto
          60 -184 vlineto
          -1 11 0 11 12 vvcurveto
          17 185 61 -179 vlineto
          109 16 52 68 73 hhcurveto
          61 36 -48 -68 hvcurveto
          46 31 24 45 64 -63 49 -97 -139 -89 -95 -148 -25 hvcurveto
          -62 -61 56 hlineto
          -1 -9 0 -9 -9 -8 0 -8 -8 vvcurveto
          -55 -60 61 hlineto
          -137 23 79 -91 132 hhcurveto
          hintmask 11111010
          93 84 45 53 13 -5 9 -8 5 hvcurveto
          -23 -29 -46 -33 -63 hhcurveto
          -87 -52 61 98 -20 hvcurveto
          endchar
        </CharString>
        <CharString name="F">
          -68 0 60 557.5 64.5 hstem
          115 106 224.5 234 callgsubr
          vstem
          507 682 rmoveto
          -425 hlineto
          -44 4 -47 -76 callsubr
          231 -42 callsubr
          -90 6 rlineto
          249 vlineto
          184 -10 6 28 -1 36 -6 25 rlinecurve
          -183 -18 rlineto
          247 vlineto
          220 -5 9 -112 rlineto
          10 -1 47 -4 40 vvcurveto
          endchar
        </CharString>
        <CharString name="G">
          453 callsubr
          698 callsubr
          344 86 -77 86 hintmask 11111000
          397 312 45 callgsubr
          hintmask 11110100
          4 callgsubr
          hintmask 11111000
          89 callsubr
        </CharString>
        <CharString name="Gbreve">
          453 callsubr
          40 77 80 -20 698 callsubr
          344 86 -77 86 hintmask 11111110
          474 895 rmoveto
          -28 532 callsubr
          50 callgsubr
          -112 -565 45 callgsubr
          hintmask 11111101
          4 callgsubr
          hintmask 11111110
          89 callsubr
        </CharString>
        <CharString name="Gcircumflex">
          453 callsubr
          111 76 0 -20 698 callsubr
          344 86 -77 86 hintmask 11110110
          347 809 -86 callgsubr
          188 -410 45 callgsubr
          hintmask 11101101
          4 callgsubr
          hintmask 11101110
          89 callsubr
        </CharString>
        <CharString name="Gdotaccent">
          453 callsubr
          63 130 698 callsubr
          140 129 75 86 -77 86 hintmask 11111110
          350 761 21 callsubr
          47 -449 45 callgsubr
          hintmask 11111101
          4 callgsubr
          hintmask 11111110
          89 callsubr
        </CharString>
        <CharString name="H">
          687 callsubr
          253 60 618 callgsubr
          631 63 34 callgsubr
        </CharString>
        <CharString name="Hbar">
          687 callsubr
          86 62 105 60 618 callgsubr
          220 369 rmoveto
          86 306 -86 vlineto
          105 -306 rmoveto
          392 66 62 -66 104 100 callsubr
          -213 8 callgsubr
          -102 -306 104 vlineto
          36 -63 callgsubr
          -214 8 callgsubr
          -102 -65 -62 65 -394 702 callsubr
          213 -42 callsubr
          -73 6 rlineto
          245 306 -247 vlineto
          565 callsubr
          214 124 callgsubr
        </CharString>
        <CharString name="Hcircumflex">
          687 callsubr
          253 60 127 76 618 callgsubr
          374 809 -86 callgsubr
          395 -659 34 callgsubr
        </CharString>
        <CharString name="I">
          635 callsubr
          221 63 rmoveto
          -1 558 hlineto
          126 callgsubr
          213 -42 callsubr
          endchar
        </CharString>
        <CharString name="IJ">
          41 -139 73 66 685 callsubr
          105 41 72 94 106 vstem
          221 63 rmoveto
          -1 558 hlineto
          126 callgsubr
          213 -42 callsubr
          96 626 rmoveto
          -43 4 -48 -10 1 hvcurveto
          76 -6 rlineto
          -567 vlineto
          -94 -16 -24 -29 -35 -14 27 41 vhcurveto
          -53 1 -19 -31 -36 vvcurveto
          -40 39 -35 58 113 62 110 113 vhcurveto
          537 1 vlineto
          33 3 45 2 -6 47 1 10 rlinecurve
          endchar
        </CharString>
        <CharString name="Iacute">
          635 callsubr
          329 840 rmoveto
          -11 21 -34 35 -30 255 callgsubr
          10 -14 21 -10 rrcurveto
          131 -108 rmoveto
          44 3 -6 46 1 10 rrcurveto
          -214 -81 callgsubr
          213 -42 callsubr
          -72 6 rlineto
          -1 558 hlineto
          endchar
        </CharString>
        <CharString name="Ibreve">
          280 callsubr
          56 77 80 -20 hstem
          115 105 vstem
          295 895 rmoveto
          -28 532 callsubr
          50 callgsubr
          -74 -254 rmoveto
          44 3 -6 46 1 10 rrcurveto
          -214 -81 callgsubr
          213 -42 callsubr
          -72 6 rlineto
          -1 558 hlineto
          endchar
        </CharString>
        <CharString name="Icircumflex">
          280 callsubr
          126 77 0 -20 630 callsubr
          hintmask 11011000
          256 623 rmoveto
          44 3 -6 46 1 10 rrcurveto
          -214 -81 callgsubr
          213 -42 callsubr
          -72 6 rlineto
          -1 558 hlineto
          -15 259 rmoveto
          -26 583 callgsubr
          rrcurveto
          hintmask 11101000
          -137 651 callsubr
          16 -9 rlinecurve
          137 86 401 callsubr
          endchar
        </CharString>
        <CharString name="Idieresis">
          280 callsubr
          71 126 hstemhm
          11 127 -23 105 -28 127 hintmask 11110000
          138 816 rmoveto
          34 -28 29 -35 -35 -29 -29 -34 -35 29 -28 35 35 28 28 35 vhcurveto
          118 -193 rmoveto
          44 3 -6 46 1 10 rrcurveto
          hintmask 11001000
          -214 -81 callgsubr
          213 -42 callsubr
          -72 6 rlineto
          -1 558 hlineto
          hintmask 11100100
          35 258 rmoveto
          -34 -29 -29 -34 -35 29 -28 34 37 27 28 35 34 -27 29 -37 hvcurveto
          endchar
        </CharString>
        <CharString name="Idotaccent">
          280 callsubr
          79 130 hstemhm
          108 129 -122 105 hintmask 11110000
          172 761 21 callsubr
          hintmask 11101000
          49 -698 rmoveto
          -1 558 hlineto
          126 callgsubr
          213 -42 callsubr
          endchar
        </CharString>
        <CharString name="Igrave">
          635 callsubr
          99 898 -10 callsubr
          -45 -702 rmoveto
          -1 558 hlineto
          126 callgsubr
          213 -42 callsubr
          endchar
        </CharString>
        <CharString name="Imacron">
          280 callsubr
          79 65 hstem
          115 105 vstem
          256 623 rmoveto
          44 3 -6 46 1 10 rrcurveto
          -214 -81 callgsubr
          213 -42 callsubr
          -72 6 rlineto
          -1 558 hlineto
          -193 205 268 callgsubr
        </CharString>
        <CharString name="Iogonek">
          -256 -174 50 124 500 callsubr
          630 callsubr
          -66 70 hintmask 01110000
          288 18 rmoveto
          7 15 -1 18 -1 6 -72 6 rcurveline
          -1 558 hlineto
          126 callgsubr
          hintmask 11101000
          164 hlineto
          -29 -23 -22 -32 -40 117 callsubr
          -11 -20 -12 -23 hhcurveto
          -26 -19 15 33 41 24 27 44 20 hvcurveto
          endchar
        </CharString>
        <CharString name="Itilde">
          280 callsubr
          64 78 -26 83 630 callsubr
          hintmask 11101000
          256 623 rmoveto
          44 3 -6 46 1 10 rrcurveto
          -214 -81 callgsubr
          213 -42 callsubr
          -72 6 rlineto
          -1 558 hlineto
          89 254 rmoveto
          -29 -7 -23 -22 -34 -55 -24 57 -61 hhcurveto
          hintmask 11011000
          360 callgsubr
          hintmask 11101000
          44 30 492 callsubr
          10 hvcurveto
          endchar
        </CharString>
        <CharString name="J">
          -212 -63 73 612 60 hstem
          10 71 95 105 vstem
          137 682 67 callsubr
          76 -6 rlineto
          214 callgsubr
          endchar
        </CharString>
        <CharString name="Jcircumflex">
          -212 -63 73 612 60 127 76 0 -20 hstemhm
          10 71 95 105 hintmask 11011100
          175 619 rmoveto
          214 callgsubr
          -217 hlineto
          -43 -36 callsubr
          165 255 rmoveto
          513 callgsubr
          rrcurveto
          hintmask 11101100
          -136 651 callsubr
          15 -9 rlinecurve
          138 87 253 callsubr
          endchar
        </CharString>
        <CharString name="K">
          35 507 callgsubr
          105 vstem
          415 682 rmoveto
          80 callsubr
          -63 6 523 callgsubr
          endchar
        </CharString>
        <CharString name="L">
          -44 0 220 callgsubr
          630 callsubr
          233 71 hintmask 01111000
          453 69 20 callsubr
          hintmask 10111000
          102 callgsubr
          rlineto
          hintmask 01111000
          72 callgsubr
        </CharString>
        <CharString name="Lacute">
          -44 0 220 callgsubr
          630 callsubr
          233 71 hintmask 01111000
          377 840 rmoveto
          -10 21 -34 64 callsubr
          280 -662 20 callsubr
          hintmask 10111000
          102 callgsubr
          rlineto
          hintmask 01111000
          72 callgsubr
        </CharString>
        <CharString name="Lcaron">
          9 0 220 callgsubr
          72 11 630 callsubr
          157 103 -27 71 hintmask 01111100
          408 535 rmoveto
          49 49 26 79 -3 76 -11 29 -85 7 -18 -20 14 -46 3 -99 -21 -52 rrcurveto
          -7 39 -20 7 4 vhcurveto
          hintmask 01111010
          45 -466 20 callsubr
          hintmask 10111100
          102 callgsubr
          rlineto
          hintmask 01111010
          72 callgsubr
        </CharString>
        <CharString name="Ldot">
          -44 0 60 -60 66 212 144 200.5 201 callgsubr
          630 callsubr
          142 144 -53 71 hintmask 01111100
          434 278 rmoveto
          41 31 31 480 callgsubr
          -31 40 hvcurveto
          hintmask 01111010
          19 -209 20 callsubr
          hintmask 10111100
          102 callgsubr
          rlineto
          hintmask 01111010
          72 callgsubr
        </CharString>
        <CharString name="Lslash">
          -41 0 220 callgsubr
          hstemhm
          118 105 233 71 hintmask 01111000
          456 69 rmoveto
          -233 -6 rlineto
          243 vlineto
          146 115 -40 49 -106 -83 rlineto
          234 1 vlineto
          50 3 44 2 -6 47 1 10 rlinecurve
          -228 hlineto
          -43 4 -48 -10 1 hvcurveto
          71 -6 rlineto
          -315 vlineto
          -98 -77 40 -49 58 46 rlineto
          hintmask 10111000
          -163 vlineto
          -35 -2 rlineto
          hintmask 01111000
          72 callgsubr
        </CharString>
        <CharString name="M">
          268 0 60 559 -20 23 61 hstemhm
          12 835 hintmask 11010000
          776 64 rmoveto
          -42 555 rlineto
          hintmask 10110000
          70 6 rlineto
          10 1 4 48 -44 hhcurveto
          -161 hlineto
          -165 -420 -187 420 rlineto
          -151 hlineto
          -43 4 -48 -10 1 hvcurveto
          69 -6 -39 -558 -42 -52 callgsubr
          195 hlineto
          43 -47 callsubr
          -78 6 33 479 194 -432 17 -4 22 3 17 5 rlinecurve
          183 447 36 -500 -33 -52 callgsubr
          211 124 callgsubr
        </CharString>
        <CharString name="N">
          393 callgsubr
          496 682 -60 callsubr
        </CharString>
        <CharString name="NULL">
          -591 endchar
        </CharString>
        <CharString name="Nacute">
          393 callgsubr
          508 840 rmoveto
          -11 21 -33 64 callsubr
          192 -49 -60 callsubr
        </CharString>
        <CharString name="Ncaron">
          393 callgsubr
          517 863 -1 callgsubr
          -9 -16 rlinecurve
          276 callgsubr
          113 -57 -60 callsubr
        </CharString>
        <CharString name="Ntilde">
          99 584 callsubr
          64 78 -26 83 hstemhm
          115 68 346 67 hintmask 11101100
          488 875 rmoveto
          -29 -7 -22 -22 -35 -54 -25 57 -61 hhcurveto
          hintmask 11011100
          360 callgsubr
          hintmask 11101100
          45 29 492 callsubr
          11 hvcurveto
          -24 -184 -60 callsubr
        </CharString>
        <CharString name="O">
          557 callsubr
          350 697 rmoveto
          -86 callsubr
          endchar
        </CharString>
        <CharString name="OE">
          318 -15 69 -54 54 -54 67 552 64 -54 69 698 callsubr
          310 105 232 61 -40.5 201 callgsubr
          hintmask 0011011010000000
          874 hmoveto
          153 vlineto
          40 -46 -5 -10 -1 vhcurveto
          -9 -116 -248 -8 rlineto
          242 vlineto
          185 -10 5 28 -1 36 -5 25 rlinecurve
          -184 -18 rlineto
          255 vlineto
          hintmask 0011011100000000
          227 -4 10 -116 rlineto
          10 -1 46 -4 39 vvcurveto
          148 -395 vlineto
          hintmask 1000111010000000
          10 -32 -35 5 -37 hhcurveto
          -214 -106 -157 -213 2 hvcurveto
          -207 1 109 -136 176 hhcurveto
          hintmask 0011011010000000
          40 35 5 10 33 hvcurveto
          hintmask 0100111010000000
          -285 343 rmoveto
          169 51 116 143 1 vhcurveto
          51 37 -13 -22 28 hvcurveto
          -498 vlineto
          -29 -27 -39 -14 -51 -1 rrcurveto
          -152 1 -39 114 174 vvcurveto
          endchar
        </CharString>
        <CharString name="Oacute">
          557 callsubr
          350 697 rmoveto
          -86 callsubr
          170 213 rmoveto
          -10 21 -34 645 callgsubr
          21 -10 rrcurveto
          endchar
        </CharString>
        <CharString name="Obreve">
          581 callsubr
          41 77 80 -20 209 callgsubr
          347 815 rmoveto
          50 callgsubr
          -35 18 rlineto
          -28 532 callsubr
          3 -118 rmoveto
          -86 callsubr
          endchar
        </CharString>
        <CharString name="Ocircumflex">
          581 callsubr
          111 77 209 callgsubr
          345 808 127 callsubr
          124 -667 rmoveto
          -127 1 -60 109 178 vvcurveto
          248 callsubr
          130 1 61 -110 -181 vvcurveto
          -176 -64 -104 -130 -2 vhcurveto
          18 642 249 callgsubr
          endchar
        </CharString>
        <CharString name="Odieresis">
          581 callsubr
          56 126 hstemhm
          37 108 43 396 callgsubr
          30 109 hintmask 11111010
          350 697 rmoveto
          -86 callsubr
          -83 126 rmoveto
          -39 callgsubr
          hintmask 11111110
          180 hmoveto
          -48 callgsubr
          endchar
        </CharString>
        <CharString name="Ograve">
          557 callsubr
          335 627 rmoveto
          130 1 61 -110 -181 vvcurveto
          -176 -64 -104 -130 -2 vhcurveto
          -127 1 -60 109 178 vvcurveto
          248 callsubr
          15 70 249 callgsubr
          55 31 0 callsubr
        </CharString>
        <CharString name="Ohungarumlaut">
          557 callsubr
          634 806 -90 callgsubr
          24 109 -90 callgsubr
          98 hmoveto
          -86 callsubr
          endchar
        </CharString>
        <CharString name="Omacron">
          581 callsubr
          64 65 209 callgsubr
          350 697 rmoveto
          -86 callsubr
          -132 199 268 callgsubr
        </CharString>
        <CharString name="Oslash">
          103 -15 70 565 -20 27 70 hstemhm
          37 108 381 109 hintmask 11011000
          492 526 rmoveto
          23 -48 11 -64 -77 vvcurveto
          -176 -64 -104 -130 -2 vhcurveto
          -38 -32 10 19 -26 hvcurveto
          -50 58 rmoveto
          -28 49 -13 68 84 vvcurveto
          hintmask 10111000
          179 63 105 127 45 37 -13 -25 29 vhcurveto
          130 82 rmoveto
          -64 32 -23 -39 rlineto
          22 -41 -47 11 -51 hhcurveto
          -199 -116 -143 -226 2 hvcurveto
          1 -122 34 -95 62 -58 -21 -36 rcurveline
          64 -35 17 29 rlineto
          -17 36 41 -9 47 hhcurveto
          204 113 143 224 hvcurveto
          hintmask 11011000
          -1 124 -34 88 -54 56 rrcurveto
          endchar
        </CharString>
        <CharString name="Otilde">
          581 callsubr
          49 78 -26 83 hstemhm
          37 108 381 109 hintmask 11101100
          350 697 rmoveto
          -86 callsubr
          hintmask 11011100
          -125 125 rmoveto
          25 8 21 21 25 hhcurveto
          hintmask 11101100
          45 30 -52 69 hhcurveto
          65 33 45 75 11 392 callgsubr
          hintmask 11011100
          -53 -41 -46 -71 -11 hvcurveto
          endchar
        </CharString>
        <CharString name="P">
          -15 0 60 202 56 309 56 hstem
          115 105 226 110 vstem
          282 628 rmoveto
          108 5 56 -53 -99 vvcurveto
          -105 -65 -58 -119 vhcurveto
          -12 -16 0 -14 hhcurveto
          308 vlineto
          -144 57 rmoveto
          -28 -7 -32 -24 691 callsubr
          -560 702 callsubr
          222 -42 callsubr
          -82 6 rlineto
          199 vlineto
          17 20 0 16 hhcurveto
          172 111 76 152 116 -88 77 -167 hvcurveto
          endchar
        </CharString>
        <CharString name="Q">
          85 -141 79 52 65 445 callsubr
          145 343 rmoveto
          248 callsubr
          130 1 61 -110 -181 vvcurveto
          -176 -64 -104 -130 -2 vhcurveto
          -127 1 -60 109 178 vvcurveto
          485 -389 rmoveto
          -11 -17 -22 -5 -12 hhcurveto
          -38 -81 21 31 -77 hvcurveto
          163 28 89 135 199 vvcurveto
          240 -2 -124 105 -159 hhcurveto
          -199 -116 -143 -226 2 hvcurveto
          1 -190 82 -122 141 -26 rrcurveto
          -49 81 131 -82 85 hhcurveto
          45 35 27 35 18 -3 9 -5 6 hvcurveto
          endchar
        </CharString>
        <CharString name="R">
          238 callsubr
          220 626 -55 callsubr
        </CharString>
        <CharString name="Racute">
          238 callsubr
          449 840 rmoveto
          -10 21 -34 64 callsubr
          -25 -105 -55 callsubr
        </CharString>
        <CharString name="Rcaron">
          238 callsubr
          458 863 rmoveto
          -8 13 -11 13 662 callgsubr
          -86 rcurveline
          -137 86 -15 -9 -8 -9 -9 -16 rlinecurve
          508 callsubr
          27 7 rlinecurve
          -105 -113 -55 callsubr
        </CharString>
        <CharString name="S">
          29 callsubr
          endchar
        </CharString>
        <CharString name="Sacute">
          29 callsubr
          154 143 rmoveto
          -10 21 -34 64 callsubr
          endchar
        </CharString>
        <CharString name="Scaron">
          -72 -15 68 576 68 hstemhm
          25 88 -59 91 233 82 -60 91 hintmask 11010100
          442 863 -1 callgsubr
          -8 -16 rlinecurve
          484 callsubr
          -2 -336 rmoveto
          251 callgsubr
          vhcurveto
          hintmask 11011000
          127 callgsubr
          hintmask 11100100
          307 callgsubr
          hintmask 11010100
          513 callsubr
          vhcurveto
          endchar
        </CharString>
        <CharString name="Scircumflex">
          -72 -15 68 576 68 112 76 0 -20 hstemhm
          25 88 -59 91 233 82 -60 91 hintmask 11100101
          273 809 -86 callgsubr
          171 -319 rmoveto
          251 callgsubr
          vhcurveto
          hintmask 11010110
          127 callgsubr
          hintmask 11011001
          307 callgsubr
          hintmask 11100101
          513 callsubr
          vhcurveto
          endchar
        </CharString>
        <CharString name="T">
          32 0 60 556 66 hstem
          20 61 179 277 callsubr
          vstem
          20 682 246 callgsubr
          -31 callgsubr
        </CharString>
        <CharString name="Tbar">
          32 0 60 556 66 79 65 hstem
          20 61 179 277 callsubr
          vstem
          458 826 573 callsubr
          -438 -79 246 callgsubr
          -31 callgsubr
        </CharString>
        <CharString name="Tcaron">
          32 0 60 556 66 hstem
          20 61 179 277 callsubr
          vstem
          486 863 239 callsubr
          276 callsubr
          -333 -57 246 callgsubr
          -31 callgsubr
        </CharString>
        <CharString name="Thorn">
          1 0 60 85 56 300 56 65 61 hstem
          115 105 219 110 vstem
          270 501 rmoveto
          111 58 -50 -97 -99 -66 -54 -123 hvcurveto
          -9 -10 0 -11 hhcurveto
          300 vlineto
          56 vmoveto
          64 vlineto
          36 3 44 2 -6 47 1 10 rlinecurve
          -214 hlineto
          -43 4 -48 -76 callsubr
          213 -42 callsubr
          -72 6 rlineto
          -1 82 hlineto
          15 19 0 12 hhcurveto
          172 111 71 144 119 -90 78 -171 hvcurveto
          endchar
        </CharString>
        <CharString name="U">
          47 callsubr
          endchar
        </CharString>
        <CharString name="Uacute">
          47 callsubr
          -152 158 123 callgsubr
          -30 255 callgsubr
          10 -14 21 -10 rrcurveto
          endchar
        </CharString>
        <CharString name="Ubreve">
          341 callsubr
          56 77 80 -20 690 callsubr
          336 815 rmoveto
          50 callgsubr
          -35 18 rlineto
          -28 532 callsubr
          132 -133 -95 callgsubr
          endchar
        </CharString>
        <CharString name="Ucircumflex">
          341 callsubr
          126 77 690 callsubr
          334 808 127 callsubr
          271 -40 -95 callgsubr
          endchar
        </CharString>
        <CharString name="Udieresis">
          341 callsubr
          71 126 hstemhm
          88 104 -15 396 callgsubr
          17 70 hintmask 11010010
          -57 callgsubr
          hintmask 11101110
          -405 71 rmoveto
          -39 callgsubr
          180 hmoveto
          -48 callgsubr
          endchar
        </CharString>
        <CharString name="Ugrave">
          47 callsubr
          -252 46 0 callsubr
        </CharString>
        <CharString name="Uhungarumlaut">
          341 callsubr
          690 callsubr
          623 806 -90 callgsubr
          24 109 -90 callgsubr
          227 -15 -95 callgsubr
          endchar
        </CharString>
        <CharString name="Umacron">
          341 callsubr
          79 65 hstemhm
          88 104 1 74 235 70 hintmask 11110100
          468 682 67 callsubr
          71 -6 1 -364 rlineto
          -142 -63 -58 -101 -103 -43 64 145 vhcurveto
          1 357 rlineto
          hintmask 11101100
          35 -63 callgsubr
          hintmask 11110100
          -213 8 callgsubr
          -347 vlineto
          -205 84 -82 151 169 80 97 194 vhcurveto
          53 callgsubr
          hintmask 11101100
          -453 144 268 callgsubr
        </CharString>
        <CharString name="Uogonek">
          69 -190 50 125 70 567 60 hstem
          88 104 79 70 161 70 vstem
          468 682 67 callsubr
          71 -6 1 -364 rlineto
          -142 -63 -58 -101 -103 -43 64 145 vhcurveto
          1 357 35 -63 callgsubr
          -213 8 callgsubr
          -347 vlineto
          -205 84 -82 151 vhcurveto
          1 hlineto
          -31 -23 -22 -33 -40 117 callsubr
          -12 -19 -12 -23 hhcurveto
          -26 -19 16 32 40 23 27 42 19 hvcurveto
          112 29 54 94 159 vvcurveto
          53 callgsubr
          endchar
        </CharString>
        <CharString name="Uring">
          341 callsubr
          47 45 87 47 hstem
          88 104 52 50 87 50 71 -26 callgsubr
          -307 226 215 callgsubr
        </CharString>
        <CharString name="Utilde">
          341 callsubr
          64 78 -26 83 hstemhm
          88 104 310 70 hintmask 11011100
          199 752 rmoveto
          660 callgsubr
          hintmask 11101100
          44 30 492 callsubr
          10 392 callgsubr
          hintmask 11011100
          -53 -40 -46 -71 -12 hvcurveto
          302 -82 -95 callgsubr
          endchar
        </CharString>
        <CharString name="V">
          43 21 -21 622 60 hstem
          2 630 vstem
          455 682 rmoveto
          -42 3 -4 callgsubr
          76 -6 -163 -488 -151 490 36 2 718 callgsubr
          -44 5 -4 callgsubr
          60 -6 206 -619 rlineto
          83 hlineto
          217 621 23 2 45 4 -6 45 1 10 rlinecurve
          endchar
        </CharString>
        <CharString name="W">
          447 callgsubr
          793 682 -73 callgsubr
        </CharString>
        <CharString name="Wacute">
          447 callgsubr
          666 840 -90 callgsubr
          330 -49 -73 callgsubr
        </CharString>
        <CharString name="Wcircumflex">
          370 21 -21 622 60 127 76 hstem
          2 957 vstem
          507 809 -86 callgsubr
          424 -40 -73 callgsubr
        </CharString>
        <CharString name="Wdieresis">
          370 21 -21 622 60 71 126 hstem
          349 396 callgsubr
          vstem
          593 753 rmoveto
          -48 callgsubr
          -180 hmoveto
          -39 callgsubr
          380 -71 -73 callgsubr
        </CharString>
        <CharString name="Wgrave">
          447 callgsubr
          437 898 -10 callsubr
          189 -83 -73 callgsubr
        </CharString>
        <CharString name="X">
          73 426 callgsubr
          hstemhm
          12 641 hintmask 10110000
          583 63 rmoveto
          -194 287 186 272 rlineto
          2 hlineto
          31 -63 callgsubr
          -198 hlineto
          -44 4 -48 -10 1 hvcurveto
          75 -6 -135 -211 rlineto
          hintmask 11010000
          -145 213 rlineto
          hintmask 10110000
          33 3 44 3 -6 46 1 10 rlinecurve
          -226 hlineto
          -43 4 -48 -10 1 hvcurveto
          67 -6 196 -290 -185 -268 565 callsubr
          202 hlineto
          43 -47 callsubr
          -75 6 rlineto
          -1 hlineto
          135 210 143 -212 rlineto
          -2 hlineto
          -31 -2 -43 -3 5 -46 -1 -10 rlinecurve
          227 -42 callsubr
          endchar
        </CharString>
        <CharString name="Y">
          28 426 callgsubr
          hstemhm
          258 105 hintmask 10110000
          439 683 198 callsubr
          hintmask 11010000
          490 callgsubr
          hintmask 10110000
          -50 callsubr
        </CharString>
        <CharString name="Yacute">
          28 426 callgsubr
          hstemhm
          258 105 hintmask 11010000
          483 840 -90 callgsubr
          hintmask 10110000
          159 -48 198 callsubr
          hintmask 11010000
          490 callgsubr
          hintmask 10110000
          -50 callsubr
        </CharString>
        <CharString name="Ycircumflex">
          28 426 callgsubr
          126 76 0 -20 hstemhm
          258 105 hintmask 10110100
          324 809 -86 callgsubr
          253 -39 198 callsubr
          hintmask 11001100
          490 callgsubr
          hintmask 10101100
          -50 callsubr
        </CharString>
        <CharString name="Ydieresis">
          28 426 callgsubr
          70 126 hstemhm
          166 127 -35 105 -16 127 hintmask 10111010
          410 753 rmoveto
          -48 callgsubr
          -180 hmoveto
          -39 callgsubr
          209 -70 198 callsubr
          hintmask 11011000
          490 callgsubr
          hintmask 10111000
          37 3 44 2 -6 47 1 10 rlinecurve
          -221 hlineto
          -44 5 -48 -10 1 hvcurveto
          61 -6 rlineto
          hintmask 10110100
          194 -339 rlineto
          -219 vlineto
          -36 96 callsubr
          -72 6 rlineto
          -1 219 hlineto
          191 339 23 3 44 4 -6 45 1 10 rlinecurve
          endchar
        </CharString>
        <CharString name="Ygrave">
          28 426 callgsubr
          hstemhm
          258 105 hintmask 11010000
          254 898 -10 callsubr
          hintmask 10110000
          18 -82 198 callsubr
          hintmask 11010000
          490 callgsubr
          hintmask 10110000
          -50 callsubr
        </CharString>
        <CharString name="Z">
          260 callgsubr
          460 78 -30 callsubr
        </CharString>
        <CharString name="Zacute">
          260 callgsubr
          462 840 rmoveto
          -10 21 -34 64 callsubr
          202 -653 -30 callsubr
        </CharString>
        <CharString name="Zcaron">
          260 callgsubr
          471 863 239 callsubr
          276 callsubr
          122 -661 -30 callsubr
        </CharString>
        <CharString name="Zdotaccent">
          -23 0 71 543.5 70.5 76 130 hstem
          66 70 105 129 102 64 vstem
          306 761 186 callsubr
          154 -683 -30 callsubr
        </CharString>
        <CharString name="a">
          118 callgsubr
          206 callgsubr
          hintmask 01111010
          333 93 -67 callgsubr
        </CharString>
        <CharString name="aacute">
          118 callgsubr
          206 callgsubr
          hintmask 01111010
          402 654 -90 callgsubr
          134 -452 -67 callgsubr
        </CharString>
        <CharString name="abreve">
          118 callgsubr
          36 77 206 callgsubr
          hintmask 01111101
          369 708 rmoveto
          -29 532 callsubr
          51 callgsubr
          -71 -597 -34 callgsubr
          hintmask 10111011
          -73 callsubr
          hintmask 01111101
          12 callsubr
          hintmask 10111101
          90 callgsubr
        </CharString>
        <CharString name="acircumflex">
          118 callgsubr
          206 callgsubr
          hintmask 01111010
          242 626 rmoveto
          137 -87 15 8 10 13 9 13 rlinecurve
          -134 124 -27 7 -15 0 -29 -7 rlinecurve
          -136 651 callsubr
          15 -9 rlinecurve
          229 -446 -67 callgsubr
        </CharString>
        <CharString name="acute">
          9 545 170 hstem
          166 241 vstem
          407 654 -90 callgsubr
          endchar
        </CharString>
        <CharString name="acute.cap">
          9 548 170 hstem
          166 241 vstem
          407 657 -90 callgsubr
          endchar
        </CharString>
        <CharString name="adieresis">
          118 callgsubr
          56 126 hstemhm
          36 108 -78 79 -60 396 callgsubr
          -60 102 hintmask 0111100110000000
          329 570 rmoveto
          -48 callgsubr
          -180 hmoveto
          -39 callgsubr
          hintmask 0111110001000000
          184 -477 -34 callgsubr
          hintmask 1011101001000000
          -73 callsubr
          hintmask 0111110001000000
          12 callsubr
          hintmask 1011100001000000
          90 callgsubr
        </CharString>
        <CharString name="ae">
          189 -15 71 -71 77 147 61 -18 60 133 69 hstemhm
          36 108 -78 79 188 108 208 100 hintmask 0101110110000000
          447 312 rmoveto
          84 13 38 49 61 hhcurveto
          54 34 -41 -92 2 hvcurveto
          hintmask 1010110110000000
          -316 -217 rmoveto
          -24 -30 -37 -15 -39 hhcurveto
          -54 -29 27 48 52 41 26 60 31 33 -7 -11 24 hvcurveto
          70 vmoveto
          5 -27 -31 4 -33 hhcurveto
          -156 -50 -72 -77 -85 62 -51 93 77 65 35 46 44 hvcurveto
          hintmask 0101101110000000
          -55 38 62 -26 75 hhcurveto
          110 77 57 38 12 -7 17 -10 7 hvcurveto
          -34 -42 -42 -20 -58 hhcurveto
          -107 -32 70 101 hvcurveto
          19 308 54 vlineto
          107 2 -48 101 -134 hhcurveto
          -64 -61 -24 -49 -42 hvcurveto
          61 -35 -80 12 -49 hhcurveto
          -103 -69 -46 -61 -43 36 -18 43 4 hvcurveto
          46 1 25 49 67 hhcurveto
          62 33 -43 -84 hvcurveto
          endchar
        </CharString>
        <CharString name="agrave">
          118 callgsubr
          206 callgsubr
          hintmask 01111010
          172 715 -10 callsubr
          -6 -489 -67 callgsubr
        </CharString>
        <CharString name="amacron">
          118 callgsubr
          64 65 206 callgsubr
          hintmask 01111101
          383 643 573 callsubr
          -50 -485 -34 callgsubr
          hintmask 10111011
          -73 callsubr
          hintmask 01111101
          12 callsubr
          hintmask 10111101
          90 callgsubr
        </CharString>
        <CharString name="ampersand">
          146 -18 72 -71 85 209 57 286 55 hstemhm
          37 98 -44 93 154 90 hintmask 10111010
          275 54 rmoveto
          -92 -48 52 68 45 22 48 43 34 hvcurveto
          11 -12 11 -13 12 -13 55 -61 59 -59 58 -47 rrcurveto
          -29 -41 -45 -13 -45 hhcurveto
          hintmask 10110110
          -8 566 rmoveto
          30 41 -22 -64 -56 -25 -61 -61 -31 hvcurveto
          -47 62 -21 47 37 vvcurveto
          51 34 37 49 vhcurveto
          352 -342 rmoveto
          41 3 -7 43 1 10 rrcurveto
          -163 hlineto
          -41 4 -45 -10 1 hvcurveto
          63 -6 -12 -45 -17 -37 -21 -31 rlinecurve
          -55 46 -60 59 -55 64 -14 17 rcurveline
          73 27 71 66 94 vvcurveto
          91 -71 51 -88 -113 -65 -71 -90 -48 21 -50 52 -70 vhcurveto
          hintmask 10111010
          -96 -53 -31 -74 -63 vvcurveto
          -98 70 -76 144 78 72 23 49 59 vhcurveto
          hintmask 01111010
          -43 62 60 -28 52 hhcurveto
          64 26 42 34 15 -5 14 -9 8 hvcurveto
          -17 -12 -32 -11 -23 hhcurveto
          -32 -43 20 33 -48 hvcurveto
          28 42 23 51 16 62 rrcurveto
          endchar
        </CharString>
        <CharString name="aogonek">
          -77 -182 49 118 71 -46 -21 220 61 175 69 206 callgsubr
          -91 70 hintmask 1101110100000000
          333 93 -34 callgsubr
          102 -144 rmoveto
          276 vlineto
          146 -95 44 -103 vhcurveto
          hintmask 1011101100000000
          -102 -69 -46 -60 -44 37 -18 42 4 hvcurveto
          53 2 32 42 55 hhcurveto
          66 33 -40 -87 hvcurveto
          -56 vlineto
          5 -28 -31 3 -33 hhcurveto
          hintmask 1101110010000000
          12 callsubr
          hintmask 1011100010000000
          7 -24 17 -19 30 -8 rrcurveto
          -29 -23 -20 -32 -38 vvcurveto
          -45 36 -33 57 35 34 13 662 callsubr
          10 -3 24 -6 4 rrcurveto
          -9 -11 -20 -13 -23 hhcurveto
          -26 -19 16 32 32 14 23 26 18 hvcurveto
          hintmask 1011100100000000
          34 7 13 21 24 vvcurveto
          endchar
        </CharString>
        <CharString name="approxequal">
          -11 196 78 -23 83 -50 78 -23 83 hstemhm
          89 380 hintmask 10011000
          363 274 rmoveto
          -19 -16 6 8 -15 hvcurveto
          hintmask 10101000
          -2 10 11 -2 12 hhcurveto
          38 -1 28 12 21 23 rrcurveto
          hintmask 10011000
          -11 -26 -25 -19 -34 1 rrcurveto
          hintmask 01001000
          -155 60 rmoveto
          hintmask 10011000
          -32 1 -28 -13 -21 -23 rrcurveto
          23 11 23 17 26 hhcurveto
          hintmask 01001000
          9 9 -2 -3 9 hvcurveto
          hintmask 10101000
          221 78 rmoveto
          -9 -29 -26 -22 -37 1 rrcurveto
          hintmask 10011000
          643 callgsubr
          34 -12 rcurveline
          -16 -20 -12 -26 -6 -30 36 -13 rcurveline
          25 10 24 20 28 hhcurveto
          635 callgsubr
          rrcurveto
          hintmask 10101000
          -32 9 16 20 10 27 6 32 rlinecurve
          endchar
        </CharString>
        <CharString name="aring">
          118 callgsubr
          32 45 87 47 hstemhm
          36 108 -78 79 7 50 87 50 -6 102 hintmask 0111110011000000
          245 678 rmoveto
          27 17 -16 -27 -27 -17 -17 -27 -27 -16 17 27 27 16 16 27 hvcurveto
          -2 -132 rmoveto
          56 39 36 55 1 hvcurveto
          52 -36 36 -56 -57 -38 -37 -55 -52 36 -35 55 vhcurveto
          hintmask 0111111010100000
          90 -453 -34 callgsubr
          hintmask 1011110100100000
          -73 callsubr
          hintmask 0111111010100000
          12 callsubr
          hintmask 1011110010100000
          90 callgsubr
        </CharString>
        <CharString name="asciicircum">
          -85 204 449 hstem
          57 392 vstem
          449 204 rmoveto
          -165 449 rlineto
          -52 hlineto
          -175 -449 rlineto
          91 hlineto
          108 283 103 -283 rlineto
          endchar
        </CharString>
        <CharString name="asciitilde">
          -11 224 78 -23 83 hstemhm
          100 380 hintmask 01100000
          136 234 rmoveto
          25 10 24 20 28 hhcurveto
          hintmask 10100000
          635 callgsubr
          -34 10 rcurveline
          -9 -29 -26 -22 -37 1 rrcurveto
          hintmask 01100000
          643 callgsubr
          rrcurveto
          endchar
        </CharString>
        <CharString name="asterisk">
          -81 719 7 hstem
          51 381 vstem
          264 565 rmoveto
          29 153 -26 9 -54 3 -26 -11 rlinecurve
          32 -155 -138 75 rlineto
          -18 -21 -12 -52 -30 vvcurveto
          157 -14 -114 -105 14 -24 45 -31 28 -7 rlinecurve
          60 139 62 -140 29 7 43 31 15 24 rlinecurve
          -116 106 158 14 rlineto
          28 -13 52 -82 callsubr
          endchar
        </CharString>
        <CharString name="at">
          422 -165 61 153 73 -69 62 310 64 134 61 hstemhm
          75 69 728 67 hintmask 11011110
          570 166 rmoveto
          -28 -35 -29 -16 -37 hhcurveto
          -74 -23 61 86 13 hvcurveto
          67 10 34 89 85 hhcurveto
          39 31 -18 -17 17 hvcurveto
          12 83 rmoveto
          -1 -6 rlineto
          14 -28 -30 8 -38 hhcurveto
          -139 -78 -101 -136 -16 hvcurveto
          -150 -17 76 -53 88 hhcurveto
          56 41 22 28 36 hvcurveto
          hintmask 10111110
          -37 2 26 -9 48 hhcurveto
          180 120 124 185 193 -163 129 -242 -276 -183 -174 -262 -248 180 -165 272 100 80 24 36 67 hvcurveto
          -12 56 rlineto
          -40 -61 -87 -15 -75 hhcurveto
          -237 -158 142 212 224 156 149 234 203 135 -109 -164 -143 -84 -94 -126 2 hvcurveto
          51 365 rlineto
          endchar
        </CharString>
        <CharString name="atilde">
          118 callgsubr
          46 78 -23 82 206 callgsubr
          hintmask 0111100010000000
          384 688 rmoveto
          495 callsubr
          hintmask 0111010010000000
          402 callgsubr
          -13 -70 33 -13 rcurveline
          25 8 22 20 25 hhcurveto
          hintmask 0111101010000000
          45 -2 29 -52 69 -1 64 -1 35 43 12 76 rrcurveto
          -82 -585 -34 callgsubr
          hintmask 1011100110000000
          -73 callsubr
          hintmask 0111101010000000
          12 callsubr
          hintmask 1011100010000000
          90 callgsubr
        </CharString>
        <CharString name="b">
          -17 -15 71 382 76 hstem
          89 101 240 107 vstem
          190 385 rmoveto
          34 38 31 19 44 hhcurveto
          89 38 -78 -110 -96 -26 -98 -100 -49 -42 24 20 -23 hvcurveto
          609 vmoveto
          -177 -21 -1 -13 0 -38 32 -4 rlinecurve
          45 -4 rlineto
          -590 vlineto
          101 -33 rlineto
          -13 29 31 -8 43 hhcurveto
          164 83 121 166 -3 hvcurveto
          177 -3 -99 65 -97 hhcurveto
          -65 -46 -26 -33 -37 hvcurveto
          endchar
        </CharString>
        <CharString name="backslash">
          714 callsubr
          365 -106 rmoveto
          -258 803 rlineto
          -87 hlineto
          258 -803 rlineto
          endchar
        </CharString>
        <CharString name="bar">
          710 callsubr
          100 -194 rmoveto
          83 918 -83 hlineto
          endchar
        </CharString>
        <CharString name="braceleft">
          -240 -188 59 795 58 hstemhm
          50 102 -51 88 -72 89 hintmask 11010000
          245 724 rmoveto
          -84 -60 -52 -80 hvcurveto
          hintmask 11001000
          -70 16 -62 -76 vvcurveto
          -30 -8 -24 -15 -17 vhcurveto
          hintmask 11100000
          -7 -9 -13 -9 -24 -10 rrcurveto
          -33 vlineto
          hintmask 11001000
          23 -10 13 -8 8 -10 rrcurveto
          15 -17 8 -23 -29 -81 -16 -62 -68 vvcurveto
          hintmask 11010000
          -80 57 -52 81 34 39 5 8 22 vhcurveto
          -4 48 rlineto
          -1 -8 -11 -1 -11 hhcurveto
          -68 -43 26 52 hvcurveto
          hintmask 11001000
          50 17 80 61 vvcurveto
          70 -23 44 -31 10 vhcurveto
          9 vlineto
          31 10 23 44 69 82 -17 59 50 vvcurveto
          hintmask 11010000
          52 43 27 68 11 11 -1 -1 8 vhcurveto
          4 47 rlineto
          8 -14 -35 5 -40 hhcurveto
          endchar
        </CharString>
        <CharString name="braceright">
          -240 -188 59 795 58 hstemhm
          139 89 -72 88 -51 102 hintmask 11010000
          15 664 rmoveto
          1 8 11 1 11 hhcurveto
          68 43 -27 -52 hvcurveto
          hintmask 11100000
          -50 -17 -59 -82 vvcurveto
          -69 23 -44 31 -10 vhcurveto
          -9 vlineto
          -31 -10 -23 -44 -70 -61 17 -80 -50 vvcurveto
          hintmask 11010000
          -52 -43 -26 -68 -11 -11 1 1 -8 vhcurveto
          -4 -48 rlineto
          -8 22 39 -5 34 hhcurveto
          81 57 52 80 hvcurveto
          hintmask 11100000
          68 -16 62 81 vvcurveto
          29 8 23 15 17 vhcurveto
          hintmask 11001000
          8 10 13 8 23 10 rrcurveto
          33 vlineto
          hintmask 11100000
          -24 10 -13 9 -7 9 rrcurveto
          -15 17 -8 24 30 76 16 62 70 vvcurveto
          hintmask 11010000
          80 -60 52 -84 -40 -35 -5 -8 -14 vhcurveto
          endchar
        </CharString>
        <CharString name="bracketleft">
          -330 -163 58 767 57 hstem
          74 83 vstem
          157 662 rmoveto
          80 57 -163 -882 163 58 -80 hlineto
          endchar
        </CharString>
        <CharString name="bracketright">
          -333 -163 58 767 57 hstem
          104 83 vstem
          104 -105 rmoveto
          -80 -58 163 882 -163 -57 80 hlineto
          endchar
        </CharString>
        <CharString name="breve">
          9 550 77 hstem
          125 322 vstem
          287 627 rmoveto
          51 callgsubr
          -35 18 rlineto
          -29 532 callsubr
          endchar
        </CharString>
        <CharString name="breve.cap">
          9 555 77 hstem
          125 322 vstem
          287 632 rmoveto
          50 callgsubr
          -35 18 rlineto
          -28 532 callsubr
          endchar
        </CharString>
        <CharString name="brokenbar">
          710 callsubr
          183 178 rmoveto
          -83 -372 83 hlineto
          -83 546 rmoveto
          83 372 -83 hlineto
          endchar
        </CharString>
        <CharString name="bullet">
          -121 243 218 hstem
          126 218 vstem
          235 243 rmoveto
          62 47 47 62 60 -47 49 -62 -60 -49 -49 -60 -62 49 -47 60 hvcurveto
          endchar
        </CharString>
        <CharString name="c">
          395 callsubr
          280 514 rmoveto
          352 callsubr
          hvcurveto
          544 callsubr
          7 callgsubr
          vhcurveto
          endchar
        </CharString>
        <CharString name="cacute">
          395 callsubr
          428 654 -90 callgsubr
          55 -31 rmoveto
          352 callsubr
          hvcurveto
          544 callsubr
          7 callgsubr
          vhcurveto
          endchar
        </CharString>
        <CharString name="caron">
          163 callgsubr
        </CharString>
        <CharString name="caron.cap">
          163 callgsubr
        </CharString>
        <CharString name="ccaron">
          -126 -15 78 380 71 696 callsubr
          37 106 216 75 hintmask 11011000
          438 680 -1 callgsubr
          -9 -16 rlinecurve
          hintmask 11101100
          276 callgsubr
          119 -440 rmoveto
          7 callgsubr
          352 callsubr
          vhcurveto
          544 callsubr
          endchar
        </CharString>
        <CharString name="ccedilla">
          -126 626 callgsubr
          30 78 380 71 hstemhm
          37 106 130 71 15 75 hintmask 11111100
          202 -83 rmoveto
          36 callgsubr
          hintmask 10111100
          7 30 rlineto
          94 6 78 52 37 vvcurveto
          517 callsubr
          -32 -39 -42 -21 -51 hhcurveto
          -115 -33 90 101 111 42 78 81 hvcurveto
          hintmask 11111110
          67 25 -56 -46 1 hvcurveto
          32 -3 43 15 55 vvcurveto
          65 -63 41 -91 352 callsubr
          vhcurveto
          -138 67 -95 117 -14 vhcurveto
          endchar
        </CharString>
        <CharString name="ccircumflex">
          395 callsubr
          269 626 -86 callgsubr
          292 -423 rmoveto
          7 callgsubr
          352 callsubr
          vhcurveto
          544 callsubr
          endchar
        </CharString>
        <CharString name="cdotaccent">
          -126 -15 78 380 71 50 130 hstemhm
          37 106 65 129 22 75 hintmask 11010100
          280 514 rmoveto
          352 callsubr
          hvcurveto
          544 callsubr
          7 callgsubr
          vhcurveto
          hintmask 11111100
          -8 50 21 callsubr
          endchar
        </CharString>
        <CharString name="cedilla">
          9 626 callgsubr
          hstem
          313 71 vstem
          317 18 rmoveto
          -48 hlineto
          -27 -101 rlineto
          36 callgsubr
          endchar
        </CharString>
        <CharString name="cedilla.cap">
          9 626 callgsubr
          hstem
          313 71 vstem
          317 18 rmoveto
          -48 hlineto
          -27 -101 rlineto
          36 callgsubr
          endchar
        </CharString>
        <CharString name="cent">
          -85 -119 7 96 78 382 167 hstem
          50 107 87.5 73.5 55 75 vstem
          322 605 rmoveto
          -19 8 -45 1 -17 -9 7 -94 rcurveline
          -127 -19 -72 -104 1 -161 1 -135 71 -101 127 -7 -8 -96 rcurveline
          17 -9 45 0 19 9 -9 100 rcurveline
          80 13 63 41 36 vvcurveto
          8 -7 19 -12 8 vhcurveto
          -33 -38 -43 -18 -54 hhcurveto
          -113 -32 90 108 105 41 79 81 68 25 -55 -48 1 hvcurveto
          31 -3 44 15 55 vvcurveto
          60 -52 39 -82 6 vhcurveto
          endchar
        </CharString>
        <CharString name="circumflex">
          9 539 163 hstem
          99 340 vstem
          306 697 3 callgsubr
        </CharString>
        <CharString name="circumflex.cap">
          9 539 163 hstem
          99 340 vstem
          306 697 3 callgsubr
        </CharString>
        <CharString name="colon">
          -353 -16 145 180 145 hstem
          47 144 vstem
          119 -16 rmoveto
          41 31 32 480 callgsubr
          -32 40 hvcurveto
          325 vmoveto
          41 31 31 41 41 -31 32 -41 -40 -32 -32 -41 -41 32 -31 40 hvcurveto
          endchar
        </CharString>
        <CharString name="comma">
          -360 -15 137 hstem
          47 137 vstem
          115 122 107 callsubr
        </CharString>
        <CharString name="copyright">
          102 14 69 77 53 203 50 73 69 hstem
          50 77 95 72 117 45 110 77 vstem
          347 608 rmoveto
          -183 -114 -124 -174 -181 118 -115 179 178 118 119 177 182 -122 116 -174 hvcurveto
          -69 vmoveto
          128 91 -86 -143 -139 -86 -88 -133 -134 -86 88 138 137 83 93 137 hvcurveto
          109 -135 rmoveto
          37 -35 25 -56 -89 -54 -62 -103 -81 49 -60 81 60 48 30 24 6 -3 16 -7 5 vhcurveto
          -19 -23 -24 -9 -29 hhcurveto
          -63 -17 48 60 55 24 40 40 37 16 -27 -23 hvcurveto
          18 -2 27 10 30 vvcurveto
          endchar
        </CharString>
        <CharString name="currency">
          4 91 78 229 78 hstem
          104 82 222 82 vstem
          490 283 rmoveto
          47 -13 40 -22 32 vhcurveto
          93 77 -14 19 -30 31 -17 9 rlinecurve
          -80 -91 rlineto
          19 -29 -38 10 -42 hhcurveto
          -43 -37 -10 -19 -31 hvcurveto
          -79 91 -17 -9 -30 -31 -14 -19 rlinecurve
          93 -77 rlineto
          -23 -32 -13 -40 -47 vvcurveto
          -46 12 -41 23 -30 vhcurveto
          -92 -77 14 -19 30 -31 17 -10 rlinecurve
          80 92 rlineto
          -20 30 37 -10 43 hhcurveto
          42 38 10 20 30 hvcurveto
          79 -92 17 10 30 31 14 19 rlinecurve
          -92 77 rlineto
          22 31 12 40 46 vvcurveto
          -193 -114 rmoveto
          -66 -45 46 68 69 45 46 66 66 45 -46 -69 -68 -45 -46 -66 hvcurveto
          endchar
        </CharString>
        <CharString name="d">
          -27 364 callgsubr
          hstemhm
          37 106 241 102 hintmask 01111000
          345 callsubr
          96 28 98 99 49 41 -23 -21 24 hvcurveto
          hintmask 10111000
          102 -350 rmoveto
          660 vlineto
          312 callsubr
          hintmask 01111000
          417 callsubr
          hintmask 10111000
          481 callgsubr
          endchar
        </CharString>
        <CharString name="dagger">
          -91 465.5 70.5 hstemhm
          207 86 -79 72 137 17 hintmask 11010000
          292 530 rmoveto
          411 callsubr
          hintmask 10110000
          132 12 10 -630 18 -4 26 0 18 4 rlinecurve
          10 631 715 callsubr
          endchar
        </CharString>
        <CharString name="daggerdbl">
          -91 267 70 128.5 70.5 hstemhm
          207 86 -83 80 -74.5 69 138.5 17 hintmask 11010100
          289 331 rmoveto
          2 141 715 callsubr
          hintmask 11100100
          -131 -12 411 callsubr
          hintmask 11010100
          132 12 2 -140 -147 12 -9 -20 9 -42 13 -20 rlinecurve
          hintmask 11001100
          135 12 7 -432 18 -4 25 0 19 4 rlinecurve
          7 432 148 -12 9 20 -9 42 -13 20 rlinecurve
          endchar
        </CharString>
        <CharString name="dcaron">
          73 364 callgsubr
          233 11 hstemhm
          37 106 241 102 65 89 hintmask 01111110
          345 callsubr
          96 28 98 99 49 41 -23 -21 24 hvcurveto
          102 310 rmoveto
          312 callsubr
          417 callsubr
          hintmask 10111110
          481 callgsubr
          -65 7 rlineto
          154 686 rmoveto
          -11 26 -71 5 -18 -19 14 -46 2 -93 -22 -52 rrcurveto
          -7 33 -17 8 5 vhcurveto
          43 50 25 73 -3 75 rrcurveto
          endchar
        </CharString>
        <CharString name="dcroat">
          -13 364 callgsubr
          24 55 hstemhm
          37 106 241 102 hintmask 01011100
          345 callsubr
          hvcurveto
          hintmask 01111100
          96 28 98 99 49 41 -23 -21 24 vhcurveto
          hintmask 01011100
          181 139 rmoveto
          55 -79 116 vlineto
          -178 -21 -1 -13 0 -38 33 -4 rlinecurve
          44 -4 rlineto
          -36 -73 -55 73 vlineto
          hintmask 01111100
          -45 vlineto
          13 -29 -31 8 -43 hhcurveto
          -164 -83 -121 -165 3 hvcurveto
          417 callsubr
          hintmask 10011100
          481 callgsubr
          -65 7 rlineto
          489 vlineto
          endchar
        </CharString>
        <CharString name="degree">
          -226 458 61 120 61 hstem
          57 68 115 68 vstem
          57 579 rmoveto
          -72 52 -49 74 72 53 50 72 72 -52 48 -73 -72 -54 -48 -73 vhcurveto
          68 1 rmoveto
          34 22 25 36 34 23 -25 -35 -34 -22 -26 -35 -35 -23 26 35 vhcurveto
          endchar
        </CharString>
        <CharString name="dieresis">
          9 570 126 hstem
          101 396 callgsubr
          vstem
          165 570 rmoveto
          -39 callgsubr
          180 hmoveto
          -48 callgsubr
          endchar
        </CharString>
        <CharString name="dieresis.cap">
          9 570 126 hstem
          101 396 callgsubr
          vstem
          165 570 rmoveto
          -39 callgsubr
          180 hmoveto
          -48 callgsubr
          endchar
        </CharString>
        <CharString name="divide">
          -94 40 139 60 71 61 139 hstem
          179 139 vstem
          50 310 652 callsubr
          -198 -270 rmoveto
          38 31 30 39 39 -31 31 -38 -39 -31 -31 -39 -39 31 -30 39 hvcurveto
          331 vmoveto
          38 31 31 39 39 -31 30 -38 -39 -31 -30 -39 -39 31 -31 39 hvcurveto
          endchar
        </CharString>
</ttFont>
